<svg width="252" height="40" viewBox="0 0 252 40" fill="none" xmlns="http://www.w3.org/2000/svg">
<path d="M22.0606 11.9192C22.0606 11.9192 21.6162 6.86872 21.5758 4.80811C21.5354 2.82831 21.495 0.282855 21.495 0.282855C21.495 0.282855 22.3435 0.202049 22.9091 0.323261C23.4748 0.444473 24.0404 0.727301 24.0404 0.727301C24.0404 0.727301 23.6364 3.83841 23.3536 5.81821C22.9495 8.88892 22.0606 11.9192 22.0606 11.9192Z" fill="#E3342F"/>
<path d="M19.7575 11.8788C19.7575 11.8788 20.4848 7.59596 20.7272 4.88889C20.9696 2.22222 21.1313 0.242427 21.1313 0.242427C21.1313 0.242427 20.8484 0 19.8787 0C18.9494 0 18.5454 0.20202 18.5454 0.20202C18.5454 0.20202 18.7474 3.47474 18.8282 4.92928C19.0303 6.38383 19.7575 11.8788 19.7575 11.8788Z" fill="#E3342F"/>
<path d="M17.7374 11.9192C17.7374 11.9192 18.1818 6.86872 18.2222 4.80811C18.2626 2.82831 18.303 0.282855 18.303 0.282855C18.303 0.282855 17.4545 0.202049 16.8889 0.323261C16.3232 0.444473 15.7576 0.727301 15.7576 0.727301C15.7576 0.727301 16.1616 3.83841 16.4444 5.81821C16.8485 8.88892 17.7374 11.9192 17.7374 11.9192Z" fill="#E3342F"/>
<path d="M15.6364 12.4848C15.6364 12.4848 11.7577 9.21209 10.2627 7.79795C8.84858 6.46462 7.0304 4.64644 7.0304 4.64644C7.0304 4.64644 7.59605 3.95958 8.0809 3.67675C8.56575 3.35352 9.17181 3.15149 9.17181 3.15149C9.17181 3.15149 11.0708 5.61614 12.2829 7.2323C14.1011 9.69694 15.6364 12.4848 15.6364 12.4848Z" fill="#E3342F"/>
<path d="M14.2222 13.9798C14.2222 13.9798 11.5556 10.5455 9.85861 8.44446C8.16165 6.34346 6.82831 4.88892 6.82831 4.88892C6.82831 4.88892 6.46468 4.92932 5.77781 5.61618C5.13134 6.26265 5.01013 6.7071 5.01013 6.7071C5.01013 6.7071 7.51518 8.8485 8.60609 9.77779C9.65659 10.6667 14.2222 13.9798 14.2222 13.9798Z" fill="#E3342F"/>
<path d="M12.5656 15.5556C12.5656 15.5556 9.2929 11.6768 7.87876 10.1818C6.54543 8.76769 4.76765 6.90912 4.76765 6.90912C4.76765 6.90912 4.12119 7.47477 3.79796 7.95961C3.47472 8.44446 3.2323 9.01012 3.2323 9.01012C3.2323 9.01012 5.77775 10.9495 7.35351 12.1616C9.81815 14.0202 12.5656 15.5556 12.5656 15.5556Z" fill="#E3342F"/>
<path d="M23.9192 12.7273C23.9192 12.7273 27.798 9.45452 29.2929 8.04038C30.7071 6.70705 32.5252 4.88887 32.5252 4.88887C32.5252 4.88887 31.9596 4.2424 31.4747 3.91917C30.9899 3.59594 30.3838 3.39392 30.3838 3.39392C30.3838 3.39392 28.4848 5.85857 27.2727 7.47473C25.4141 9.93937 23.9192 12.7273 23.9192 12.7273Z" fill="#E3342F"/>
<path d="M25.3334 14.2222C25.3334 14.2222 28 10.7879 29.697 8.68691C31.394 6.6263 32.7273 5.13135 32.7273 5.13135C32.7273 5.13135 33.0909 5.17176 33.7778 5.85863C34.4243 6.5455 34.5455 6.94953 34.5455 6.94953C34.5455 6.94953 32.0404 9.09094 30.9495 10.0202C29.899 10.9091 25.3334 14.2222 25.3334 14.2222Z" fill="#E3342F"/>
<path d="M26.9899 15.798C26.9899 15.798 30.2222 11.9192 31.6767 10.4242C33.0101 9.01008 34.7878 7.19189 34.7878 7.19189C34.7878 7.19189 35.4343 7.75755 35.7575 8.2424C36.0808 8.72725 36.3232 9.29291 36.3232 9.29291C36.3232 9.29291 33.7777 11.2323 32.202 12.4444C29.7373 14.2626 26.9899 15.798 26.9899 15.798Z" fill="#E3342F"/>
<path d="M11.8383 17.6162C11.8383 17.6162 6.78778 18.0606 4.72717 18.101C2.78778 18.1414 0.201924 18.1818 0.201924 18.1818C0.201924 18.1818 0.121115 17.3333 0.242327 16.7677C0.363539 16.202 0.646368 15.6364 0.646368 15.6364C0.646368 15.6364 3.75748 16.0404 5.69687 16.3232C8.80798 16.7273 11.8383 17.6162 11.8383 17.6162Z" fill="#E3342F"/>
<path d="M11.798 19.8787C11.798 19.8787 7.51515 19.1515 4.84848 18.909C2.18182 18.6262 0.242424 18.505 0.242424 18.505C0.242424 18.505 0 18.7878 0 19.7575C0 20.6868 0.20202 21.0909 0.20202 21.0909C0.20202 21.0909 3.47475 20.8888 4.88889 20.808C6.34343 20.6464 11.798 19.8787 11.798 19.8787Z" fill="#E3342F"/>
<path d="M11.8383 21.9394C11.8383 21.9394 6.78778 21.4949 4.72717 21.4545C2.78778 21.4141 0.201924 21.3737 0.201924 21.3737C0.201924 21.3737 0.121115 22.2222 0.242327 22.7879C0.363539 23.3535 0.646368 23.9192 0.646368 23.9192C0.646368 23.9192 3.75748 23.5151 5.69687 23.2323C8.80798 22.8283 11.8383 21.9394 11.8383 21.9394Z" fill="#E3342F"/>
<path d="M27.798 21.9394C27.798 21.9394 32.8081 21.4949 34.9091 21.4545C36.8485 21.4141 39.3939 21.3737 39.3939 21.3737C39.3939 21.3737 39.4747 22.2222 39.3535 22.7879C39.2323 23.3535 38.9495 23.9192 38.9495 23.9192C38.9495 23.9192 35.8384 23.5151 33.899 23.2323C30.8283 22.8283 27.798 21.9394 27.798 21.9394Z" fill="#E3342F"/>
<path d="M27.8384 19.6768C27.8384 19.6768 32.1212 20.4041 34.7879 20.6465C37.4545 20.8889 39.3939 21.0505 39.3939 21.0505C39.3939 21.0505 39.6364 20.7677 39.6364 19.798C39.6364 18.8687 39.4343 18.4647 39.4343 18.4647C39.4343 18.4647 36.1616 18.6667 34.7475 18.7475C33.2929 18.9091 27.8384 19.6768 27.8384 19.6768Z" fill="#E3342F"/>
<path d="M27.798 17.6162C27.798 17.6162 32.8081 18.0606 34.9091 18.101C36.8485 18.1414 39.3939 18.1818 39.3939 18.1818C39.3939 18.1818 39.4747 17.3333 39.3535 16.7677C39.2323 16.202 38.9495 15.6364 38.9495 15.6364C38.9495 15.6364 35.8384 16.0404 33.899 16.3232C30.8283 16.7273 27.798 17.6162 27.798 17.6162Z" fill="#E3342F"/>
<path d="M17.7374 27.7979C17.7374 27.7979 18.1818 32.8484 18.2222 34.909C18.2626 36.8888 18.303 39.4343 18.303 39.4343C18.303 39.4343 17.4545 39.5151 16.8889 39.3939C16.3232 39.2727 15.7576 38.9898 15.7576 38.9898C15.7576 38.9898 16.1616 35.8787 16.4444 33.8989C16.8485 30.8282 17.7374 27.7979 17.7374 27.7979Z" fill="#E3342F"/>
<path d="M20 27.8383C20 27.8383 19.2727 32.1211 19.0303 34.8282C18.7474 37.4949 18.6262 39.4747 18.6262 39.4747C18.6262 39.4747 18.909 39.7171 19.8787 39.7171C20.808 39.7171 21.2121 39.5151 21.2121 39.5151C21.2121 39.5151 21.0101 36.2424 20.9292 34.7878C20.7676 33.2929 20 27.8383 20 27.8383Z" fill="#E3342F"/>
<path d="M22.0606 27.7979C22.0606 27.7979 21.6162 32.8484 21.5758 34.909C21.5354 36.8888 21.495 39.4343 21.495 39.4343C21.495 39.4343 22.3435 39.5151 22.9091 39.3939C23.4748 39.2727 24.0404 38.9898 24.0404 38.9898C24.0404 38.9898 23.6364 35.8787 23.3536 33.8989C22.9495 30.8282 22.0606 27.7979 22.0606 27.7979Z" fill="#E3342F"/>
<path d="M23.7576 26.8282C23.7576 26.8282 27.6364 30.101 29.1313 31.5151C30.5454 32.8484 32.3636 34.6666 32.3636 34.6666C32.3636 34.6666 31.798 35.3535 31.3131 35.6363C30.8283 35.9595 30.2222 36.1616 30.2222 36.1616C30.2222 36.1616 28.3232 33.6969 27.1111 32.0808C25.2929 29.6161 23.7576 26.8282 23.7576 26.8282Z" fill="#E3342F"/>
<path d="M25.1716 25.3333C25.1716 25.3333 27.8383 28.7677 29.5353 30.8687C31.2322 32.9293 32.5656 34.4242 32.5656 34.4242C32.5656 34.4242 32.9292 34.3838 33.6161 33.6969C34.2625 33.0101 34.3837 32.606 34.3837 32.606C34.3837 32.606 31.8787 30.4646 30.7878 29.5353C29.7373 28.6465 25.1716 25.3333 25.1716 25.3333Z" fill="#E3342F"/>
<path d="M26.8282 23.7575C26.8282 23.7575 30.101 27.6363 31.5151 29.1313C32.8484 30.5454 34.6262 32.3636 34.6262 32.3636C34.6262 32.3636 35.2727 31.7979 35.5959 31.3131C35.9191 30.8282 36.1616 30.2626 36.1616 30.2626C36.1616 30.2626 33.6161 28.3232 32.0404 27.111C29.5757 25.2929 26.8282 23.7575 26.8282 23.7575Z" fill="#E3342F"/>
<path d="M15.8385 27.0707C15.8385 27.0707 11.9597 30.303 10.4647 31.7575C9.0506 33.0909 7.23242 34.8686 7.23242 34.8686C7.23242 34.8686 7.79808 35.5555 8.28293 35.8383C8.76777 36.1616 9.37383 36.3636 9.37383 36.3636C9.37383 36.3636 11.3132 33.899 12.4849 32.2828C14.3031 29.8586 15.8385 27.0707 15.8385 27.0707Z" fill="#E3342F"/>
<path d="M14.4243 25.5757C14.4243 25.5757 11.7576 29.01 10.0202 31.0706C8.32327 33.1312 6.94953 34.6262 6.94953 34.6262C6.94953 34.6262 6.58589 34.5858 5.89902 33.8989C5.25256 33.212 5.13135 32.808 5.13135 32.808C5.13135 32.808 7.6364 30.6666 8.72731 29.7777C9.81821 28.8484 14.4243 25.5757 14.4243 25.5757Z" fill="#E3342F"/>
<path d="M12.7678 23.9999C12.7678 23.9999 9.49505 27.8787 8.08091 29.3737C6.74758 30.7878 4.9294 32.606 4.9294 32.606C4.9294 32.606 4.28293 32.0403 3.9597 31.5555C3.63647 31.0706 3.39404 30.4646 3.39404 30.4646C3.39404 30.4646 5.9395 28.5252 7.51525 27.3535C9.9799 25.4949 12.7678 23.9999 12.7678 23.9999Z" fill="#E3342F"/>
<path d="M56.4444 33.4141C49.6162 33.4141 48.3232 29.4141 48.6465 24.8485H54.1414C54.1414 27.3535 54.2626 29.4949 57.2929 29.4949C59.1515 29.4949 60.0808 28.2828 60.0808 26.505C60.0808 21.7374 48.9697 21.4545 48.9697 13.6162C48.9697 9.49495 50.9495 6.22223 57.6566 6.22223C63.0303 6.22223 65.697 8.64647 65.3333 14.1414H59.9596C59.9596 12.1616 59.6364 10.1414 57.4141 10.1414C55.6364 10.1414 54.5455 11.1111 54.5455 12.9697C54.5455 17.9798 65.6566 17.5354 65.6566 25.8182C65.6566 32.606 60.6465 33.4141 56.4444 33.4141Z" fill="white"/>
<path d="M84.0403 6.58588V10.9899H77.8989V32.9697H72.404V10.9899H66.2626V6.58588H84.0403Z" fill="white"/>
<path d="M92.8888 32.9697V6.58588H107.273V10.6263H98.3837V17.1313H106.586V21.2121H98.3837V28.8889H107.555V32.9697H92.8888Z" fill="white"/>
<path d="M114.707 16.3637H114.788C115.798 14.7071 117.212 14.1415 119.151 14.1415C121.616 14.1415 123.757 15.596 123.757 18.1415V32.9293H118.626V20.2021C118.626 18.5455 118.343 17.293 116.687 17.293C115.03 17.293 114.747 18.5859 114.747 20.2021V32.9293H109.616V14.5051H114.747V16.3637H114.707Z" fill="white"/>
<path d="M133.252 29.5354C135.111 29.5354 135.353 27.596 135.353 23.6768C135.353 19.6364 135.151 17.3333 133.252 17.3333C131.313 17.3333 130.99 18.6667 130.99 24.3232C130.99 26.0202 130.747 29.5354 133.252 29.5354ZM140.485 14.5051V33.697C140.485 34.9899 140.566 40 133.454 40C129.616 40 126.343 39.0303 126.222 34.505H131.273C131.273 35.2727 131.394 35.9192 131.717 36.3636C132.04 36.8485 132.646 37.0909 133.414 37.0909C134.707 37.0909 135.313 35.8788 135.313 34.0202V30.4646H135.232C134.465 31.8788 133.01 32.606 131.313 32.606C125.656 32.606 125.899 27.4343 125.899 23.2727C125.899 19.2323 125.98 14.0606 131.353 14.0606C133.172 14.0606 134.747 14.8687 135.475 16.5657H135.555V14.5051H140.485Z" fill="white"/>
<path d="M148.566 32.9697H143.434V14.5051H148.566V32.9697ZM148.566 10.6263H143.434V6.58588H148.566V10.6263Z" fill="white"/>
<path d="M156.566 16.3636H156.646C157.656 14.7071 159.071 14.1414 161.01 14.1414C163.475 14.1414 165.616 15.596 165.616 18.1414V32.9293H160.485V20.202C160.485 18.5455 160.202 17.2929 158.545 17.2929C156.889 17.2929 156.606 18.5859 156.606 20.202V32.9293H151.475V14.5051H156.606V16.3636H156.566Z" fill="white"/>
<path d="M177.656 21.6566C177.656 19.8788 177.737 17.2929 175.273 17.2929C172.889 17.2929 172.929 20.0808 172.929 21.6566H177.656ZM172.929 24.5656C172.929 26.7475 173.01 30.0606 175.273 30.0606C177.091 30.0606 177.454 28.3232 177.454 26.7879H182.667C182.586 28.8081 181.939 30.4242 180.687 31.5555C179.475 32.6869 177.656 33.3333 175.232 33.3333C168.566 33.3333 167.717 29.2929 167.717 23.5151C167.717 18.4646 168.444 14.1818 175.232 14.1818C182.182 14.1818 182.949 18.6667 182.747 24.6061H172.929V24.5656Z" fill="white"/>
<path d="M194.465 21.6566C194.465 19.8788 194.545 17.2929 192.081 17.2929C189.697 17.2929 189.737 20.0808 189.737 21.6566H194.465ZM189.737 24.5656C189.737 26.7475 189.818 30.0606 192.081 30.0606C193.899 30.0606 194.263 28.3232 194.263 26.7879H199.475C199.394 28.8081 198.747 30.4242 197.495 31.5555C196.283 32.6869 194.465 33.3333 192.04 33.3333C185.414 33.3333 184.525 29.2929 184.525 23.5151C184.525 18.4646 185.252 14.1818 192.04 14.1818C198.99 14.1818 199.757 18.6667 199.555 24.6061H189.737V24.5656Z" fill="white"/>
<path d="M206.626 14.5051V16.8889H206.707C207.677 14.7879 209.414 14.1414 211.475 14.1414V18.7475C206.949 18.4646 206.868 21.0909 206.868 22.9091V32.9697H201.737V14.5051H206.626Z" fill="white"/>
<path d="M218.222 32.9697H213.091V14.5051H218.222V32.9697ZM218.222 10.6263H213.091V6.58588H218.222V10.6263Z" fill="white"/>
<path d="M226.222 16.3636H226.303C227.313 14.7071 228.727 14.1414 230.666 14.1414C233.131 14.1414 235.273 15.596 235.273 18.1414V32.9293H230.06V20.202C230.06 18.5455 229.778 17.2929 228.121 17.2929C226.464 17.2929 226.182 18.5859 226.182 20.202V32.9293H221.05V14.5051H226.182V16.3636H226.222Z" fill="white"/>
<path d="M244.727 29.5354C246.586 29.5354 246.828 27.596 246.828 23.6768C246.828 19.6364 246.626 17.3333 244.727 17.3333C242.788 17.3333 242.464 18.6667 242.464 24.3232C242.464 26.0202 242.222 29.5354 244.727 29.5354ZM252 14.5051V33.697C252 34.9899 252.081 40 244.97 40C241.131 40 237.858 39.0303 237.737 34.505H242.788C242.788 35.2727 242.909 35.9192 243.232 36.3636C243.555 36.8485 244.161 37.0909 244.929 37.0909C246.222 37.0909 246.828 35.8788 246.828 34.0202V30.4646H246.747C245.98 31.8788 244.525 32.606 242.828 32.606C237.172 32.606 237.414 27.4343 237.414 23.2727C237.414 19.2323 237.495 14.0606 242.869 14.0606C244.687 14.0606 246.262 14.8687 246.99 16.5657H247.071V14.5051H252Z" fill="white"/>
</svg>
