<?xml version="1.0"?>
<svg width="209" height="57" viewBox="0 0 209 57" fill="none" xmlns="http://www.w3.org/2000/svg">
    <path d="M17.9217 10.2834C17.9217 10.2834 17.5607 6.01073 17.5278 4.2675C17.495 2.59262 17.4622 0.439211 17.4622 0.439211C17.4622 0.439211 18.1515 0.370851 18.611 0.473394C19.0705 0.575937 19.5301 0.815205 19.5301 0.815205C19.5301 0.815205 19.2018 3.44715 18.9721 5.12202C18.6438 7.71979 17.9217 10.2834 17.9217 10.2834Z" fill="white"/>
    <path d="M16.0508 10.2492C16.0508 10.2492 16.6416 6.626 16.8385 4.33586C17.0355 2.07991 17.1668 0.40504 17.1668 0.40504C17.1668 0.40504 16.937 0.199951 16.1492 0.199951C15.3943 0.199951 15.0661 0.370857 15.0661 0.370857C15.0661 0.370857 15.2302 3.13952 15.2958 4.37004C15.4599 5.60056 16.0508 10.2492 16.0508 10.2492Z" fill="white"/>
    <path d="M14.4096 10.2834C14.4096 10.2834 14.7706 6.01073 14.8035 4.2675C14.8363 2.59262 14.8691 0.439211 14.8691 0.439211C14.8691 0.439211 14.1798 0.370851 13.7203 0.473394C13.2608 0.575937 12.8012 0.815205 12.8012 0.815205C12.8012 0.815205 13.1295 3.44715 13.3592 5.12202C13.6875 7.71979 14.4096 10.2834 14.4096 10.2834Z" fill="white"/>
    <path d="M12.7028 10.7619C12.7028 10.7619 9.55168 7.99323 8.33721 6.7969C7.18838 5.66892 5.71132 4.13078 5.71132 4.13078C5.71132 4.13078 6.17085 3.5497 6.56473 3.31043C6.95861 3.03698 7.45097 2.86607 7.45097 2.86607C7.45097 2.86607 8.99368 4.95112 9.97839 6.31836C11.4555 8.40341 12.7028 10.7619 12.7028 10.7619Z" fill="white"/>
    <path d="M11.5539 12.0266C11.5539 12.0266 9.38756 9.12121 8.00897 7.3438C6.63038 5.56638 5.5472 4.33586 5.5472 4.33586C5.5472 4.33586 5.25178 4.37004 4.69378 4.95112C4.1686 5.49802 4.07013 5.87401 4.07013 5.87401C4.07013 5.87401 6.1052 7.6856 6.99144 8.47177C7.84485 9.22375 11.5539 12.0266 11.5539 12.0266Z" fill="white"/>
    <path d="M10.2082 13.3597C10.2082 13.3597 7.54944 10.0783 6.40061 8.81358C5.31743 7.61724 3.87319 6.04492 3.87319 6.04492C3.87319 6.04492 3.34801 6.52345 3.08542 6.93362C2.82283 7.34379 2.62589 7.82233 2.62589 7.82233C2.62589 7.82233 4.69378 9.46303 5.9739 10.4885C7.97615 12.0608 10.2082 13.3597 10.2082 13.3597Z" fill="white"/>
    <path d="M19.4316 10.967C19.4316 10.967 22.5827 8.19832 23.7971 7.00198C24.946 5.87401 26.423 4.33586 26.423 4.33586C26.423 4.33586 25.9635 3.78896 25.5696 3.51551C25.1757 3.24206 24.6834 3.07116 24.6834 3.07116C24.6834 3.07116 23.1407 5.15621 22.156 6.52345C20.6461 8.6085 19.4316 10.967 19.4316 10.967Z" fill="white"/>
    <path d="M20.5804 12.2317C20.5804 12.2317 22.7468 9.3263 24.1254 7.54888C25.504 5.80565 26.5872 4.54094 26.5872 4.54094C26.5872 4.54094 26.8826 4.57513 27.4406 5.15621C27.9658 5.73729 28.0642 6.07909 28.0642 6.07909C28.0642 6.07909 26.0292 7.89069 25.1429 8.67686C24.2895 9.42884 20.5804 12.2317 20.5804 12.2317Z" fill="white"/>
    <path d="M21.9262 13.5648C21.9262 13.5648 24.5521 10.2834 25.7337 9.01867C26.8169 7.82233 28.2612 6.28418 28.2612 6.28418C28.2612 6.28418 28.7863 6.76272 29.0489 7.17289C29.3115 7.58306 29.5085 8.0616 29.5085 8.0616C29.5085 8.0616 27.4406 9.70229 26.1605 10.7277C24.1582 12.2659 21.9262 13.5648 21.9262 13.5648Z" fill="white"/>
    <path d="M9.61733 15.1029C9.61733 15.1029 5.51437 15.4789 3.84037 15.5131C2.26483 15.5473 0.164118 15.5814 0.164118 15.5814C0.164118 15.5814 0.0984707 14.8636 0.196942 14.3851C0.295413 13.9066 0.525178 13.428 0.525178 13.428C0.525178 13.428 3.0526 13.7698 4.62814 14.0091C7.15556 14.3509 9.61733 15.1029 9.61733 15.1029Z" fill="white"/>
    <path d="M9.58451 17.017C9.58451 17.017 6.1052 16.4018 3.93884 16.1967C1.77248 15.9574 0.196942 15.8549 0.196942 15.8549C0.196942 15.8549 0 16.0942 0 16.9145C0 17.7007 0.164118 18.0425 0.164118 18.0425C0.164118 18.0425 2.82283 17.8716 3.97166 17.8032C5.15331 17.6665 9.58451 17.017 9.58451 17.017Z" fill="white"/>
    <path d="M9.61733 18.7603C9.61733 18.7603 5.51437 18.3843 3.84037 18.3501C2.26483 18.3159 0.164118 18.2817 0.164118 18.2817C0.164118 18.2817 0.0984707 18.9995 0.196942 19.4781C0.295413 19.9566 0.525178 20.4351 0.525178 20.4351C0.525178 20.4351 3.0526 20.0933 4.62814 19.8541C7.15556 19.5123 9.61733 18.7603 9.61733 18.7603Z" fill="white"/>
    <path d="M22.5827 18.7603C22.5827 18.7603 26.6528 18.3843 28.3596 18.3501C29.9352 18.3159 32.0031 18.2817 32.0031 18.2817C32.0031 18.2817 32.0687 18.9995 31.9702 19.4781C31.8718 19.9566 31.642 20.4351 31.642 20.4351C31.642 20.4351 29.1146 20.0933 27.539 19.8541C25.0444 19.5123 22.5827 18.7603 22.5827 18.7603Z" fill="white"/>
    <path d="M22.6155 16.8461C22.6155 16.8461 26.0948 17.4614 28.2612 17.6665C30.4275 17.8716 32.0031 18.0083 32.0031 18.0083C32.0031 18.0083 32.2 17.769 32.2 16.9487C32.2 16.1625 32.0359 15.8207 32.0359 15.8207C32.0359 15.8207 29.3772 15.9916 28.2283 16.06C27.0467 16.1967 22.6155 16.8461 22.6155 16.8461Z" fill="white"/>
    <path d="M22.5827 15.1029C22.5827 15.1029 26.6528 15.4789 28.3596 15.5131C29.9352 15.5473 32.0031 15.5814 32.0031 15.5814C32.0031 15.5814 32.0687 14.8636 31.9702 14.3851C31.8718 13.9066 31.642 13.428 31.642 13.428C31.642 13.428 29.1146 13.7698 27.539 14.0091C25.0444 14.3509 22.5827 15.1029 22.5827 15.1029Z" fill="white"/>
    <path d="M14.4096 23.7165C14.4096 23.7165 14.7706 27.9892 14.8035 29.7324C14.8363 31.4073 14.8691 33.5607 14.8691 33.5607C14.8691 33.5607 14.1798 33.6291 13.7203 33.5265C13.2608 33.424 12.8012 33.1847 12.8012 33.1847C12.8012 33.1847 13.1295 30.5527 13.3592 28.8779C13.6875 26.2801 14.4096 23.7165 14.4096 23.7165Z" fill="white"/>
    <path d="M16.2477 23.7507C16.2477 23.7507 15.6569 27.3739 15.4599 29.664C15.2302 31.92 15.1317 33.5949 15.1317 33.5949C15.1317 33.5949 15.3615 33.7999 16.1492 33.7999C16.9042 33.7999 17.2324 33.629 17.2324 33.629C17.2324 33.629 17.0683 30.8604 17.0027 29.6299C16.8714 28.3652 16.2477 23.7507 16.2477 23.7507Z" fill="white"/>
    <path d="M17.9217 23.7165C17.9217 23.7165 17.5607 27.9892 17.5278 29.7324C17.495 31.4073 17.4622 33.5607 17.4622 33.5607C17.4622 33.5607 18.1515 33.6291 18.611 33.5265C19.0705 33.424 19.5301 33.1847 19.5301 33.1847C19.5301 33.1847 19.2018 30.5527 18.9721 28.8779C18.6438 26.2801 17.9217 23.7165 17.9217 23.7165Z" fill="white"/>
    <path d="M19.3003 22.8962C19.3003 22.8962 22.4514 25.6649 23.6659 26.8612C24.8147 27.9892 26.2917 29.5273 26.2917 29.5273C26.2917 29.5273 25.8322 30.1084 25.4383 30.3477C25.0444 30.6211 24.5521 30.792 24.5521 30.792C24.5521 30.792 23.0094 28.707 22.0247 27.3397C20.5476 25.2547 19.3003 22.8962 19.3003 22.8962Z" fill="white"/>
    <path d="M20.4491 21.6315C20.4491 21.6315 22.6155 24.5369 23.9941 26.3143C25.3727 28.0575 26.4559 29.3222 26.4559 29.3222C26.4559 29.3222 26.7513 29.288 27.3093 28.707C27.8345 28.1259 27.9329 27.7841 27.9329 27.7841C27.9329 27.7841 25.8979 25.9725 25.0116 25.1863C24.1582 24.4343 20.4491 21.6315 20.4491 21.6315Z" fill="white"/>
    <path d="M21.7949 20.2984C21.7949 20.2984 24.4536 23.5798 25.6024 24.8445C26.6856 26.0409 28.1299 27.579 28.1299 27.579C28.1299 27.579 28.655 27.1005 28.9176 26.6903C29.1802 26.2801 29.3772 25.8016 29.3772 25.8016C29.3772 25.8016 27.3093 24.1609 26.0292 23.1355C24.0269 21.5973 21.7949 20.2984 21.7949 20.2984Z" fill="white"/>
    <path d="M12.8669 23.1013C12.8669 23.1013 9.7158 25.8358 8.50133 27.0663C7.3525 28.1943 5.87543 29.6982 5.87543 29.6982C5.87543 29.6982 6.33496 30.2793 6.72885 30.5186C7.12273 30.792 7.61509 30.9629 7.61509 30.9629C7.61509 30.9629 9.19062 28.8779 10.1425 27.5106C11.6196 25.4598 12.8669 23.1013 12.8669 23.1013Z" fill="white"/>
    <path d="M11.718 21.8366C11.718 21.8366 9.55168 24.742 8.14027 26.4852C6.76167 28.2284 5.64567 29.4931 5.64567 29.4931C5.64567 29.4931 5.35026 29.459 4.79225 28.8779C4.26708 28.2968 4.1686 27.955 4.1686 27.955C4.1686 27.955 6.20367 26.1434 7.08991 25.3914C7.97615 24.6052 11.718 21.8366 11.718 21.8366Z" fill="white"/>
    <path d="M10.3723 20.5035C10.3723 20.5035 7.71356 23.7849 6.56473 25.0496C5.48155 26.2459 4.00449 27.7841 4.00449 27.7841C4.00449 27.7841 3.47931 27.3056 3.21672 26.8954C2.95413 26.4852 2.75719 25.9725 2.75719 25.9725C2.75719 25.9725 4.82508 24.3318 6.1052 23.3405C8.10744 21.7682 10.3723 20.5035 10.3723 20.5035Z" fill="white"/>
    <path d="M45.7323 28.3406C40.0454 28.3406 38.9686 25.0248 39.2378 21.2401H43.8142C43.8142 23.3167 43.9152 25.0918 46.439 25.0918C47.9869 25.0918 48.7608 24.087 48.7608 22.6133C48.7608 18.6612 39.507 18.4267 39.507 11.9291C39.507 8.51284 41.1559 5.79993 46.7418 5.79993C51.2173 5.79993 53.4382 7.8095 53.1354 12.3645H48.6599C48.6599 10.7234 48.3907 9.04873 46.5399 9.04873C45.0593 9.04873 44.1507 9.85256 44.1507 11.3932C44.1507 15.5463 53.4046 15.1779 53.4046 22.0439C53.4046 27.6707 49.2319 28.3406 45.7323 28.3406Z" fill="white"/>
    <path d="M68.7157 6.10136V9.75208H63.6008V27.9722H59.0244V9.75208H53.9095V6.10136H68.7157Z" fill="white"/>
    <path d="M76.0851 27.9722V6.10136H88.0646V9.45064H80.6616V14.843H87.4926V18.2258H80.6616V24.5894H88.3002V27.9722H76.0851Z" fill="white"/>
    <path d="M94.2563 14.2066H94.3236C95.1649 12.8334 96.3426 12.3645 97.9578 12.3645C100.011 12.3645 101.794 13.5703 101.794 15.6803V27.9387H97.5204V17.3884C97.5204 16.0152 97.2848 14.977 95.9052 14.977C94.5255 14.977 94.29 16.0487 94.29 17.3884V27.9387H90.0164V12.666H94.29V14.2066H94.2563Z" fill="white"/>
    <path d="M109.702 25.1253C111.25 25.1253 111.452 23.5176 111.452 20.2688C111.452 16.9195 111.283 15.0105 109.702 15.0105C108.087 15.0105 107.817 16.1157 107.817 20.8047C107.817 22.2114 107.615 25.1253 109.702 25.1253ZM115.725 12.666V28.575C115.725 29.6468 115.793 33.7999 109.87 33.7999C106.673 33.7999 103.948 32.9961 103.847 29.2449H108.053C108.053 29.8813 108.154 30.4172 108.423 30.7856C108.692 31.1875 109.197 31.3884 109.836 31.3884C110.913 31.3884 111.418 30.3837 111.418 28.843V25.8956H111.351C110.711 27.0679 109.5 27.6707 108.087 27.6707C103.376 27.6707 103.577 23.3837 103.577 19.9339C103.577 16.5846 103.645 12.2975 108.12 12.2975C109.635 12.2975 110.947 12.9674 111.553 14.3741H111.62V12.666H115.725Z" fill="white"/>
    <path d="M122.455 27.9722H118.182V12.666H122.455V27.9722ZM122.455 9.45064H118.182V6.10136H122.455V9.45064Z" fill="white"/>
    <path d="M129.118 14.2066H129.185C130.027 12.8334 131.204 12.3645 132.82 12.3645C134.872 12.3645 136.656 13.5703 136.656 15.6803V27.9387H132.382V17.3884C132.382 16.0152 132.147 14.977 130.767 14.977C129.387 14.977 129.152 16.0487 129.152 17.3884V27.9387H124.878V12.666H129.152V14.2066H129.118Z" fill="white"/>
    <path d="M146.684 18.5942C146.684 17.1205 146.751 14.977 144.698 14.977C142.713 14.977 142.746 17.288 142.746 18.5942H146.684ZM142.746 21.0057C142.746 22.8143 142.814 25.5607 144.698 25.5607C146.212 25.5607 146.515 24.1205 146.515 22.8478H150.856C150.789 24.5224 150.25 25.8621 149.207 26.7999C148.198 27.7377 146.684 28.2736 144.665 28.2736C139.112 28.2736 138.406 24.9243 138.406 20.1348C138.406 15.9482 139.011 12.398 144.665 12.398C150.452 12.398 151.092 16.1157 150.923 21.0392H142.746V21.0057Z" fill="white"/>
    <path d="M160.682 18.5942C160.682 17.1205 160.749 14.977 158.697 14.977C156.711 14.977 156.745 17.288 156.745 18.5942H160.682ZM156.745 21.0057C156.745 22.8143 156.812 25.5607 158.697 25.5607C160.211 25.5607 160.514 24.1205 160.514 22.8478H164.855C164.787 24.5224 164.249 25.8621 163.206 26.7999C162.196 27.7377 160.682 28.2736 158.663 28.2736C153.144 28.2736 152.404 24.9243 152.404 20.1348C152.404 15.9482 153.01 12.398 158.663 12.398C164.451 12.398 165.09 16.1157 164.922 21.0392H156.745V21.0057Z" fill="white"/>
    <path d="M170.811 12.666V14.642H170.878C171.686 12.9004 173.133 12.3645 174.849 12.3645V16.1827C171.08 15.9483 171.013 18.1253 171.013 19.6325V27.9722H166.739V12.666H170.811Z" fill="white"/>
    <path d="M180.468 27.9722H176.195V12.666H180.468V27.9722ZM180.468 9.45064H176.195V6.10136H180.468V9.45064Z" fill="white"/>
    <path d="M187.199 14.2066C188.04 12.8334 189.218 12.3645 190.833 12.3645C192.885 12.3645 194.669 13.5703 194.669 15.6803V27.9387H190.328V17.3884C190.328 16.0152 190.092 14.977 188.713 14.977C187.333 14.977 187.098 16.0487 187.098 17.3884V27.9387H182.824V12.666H187.098V14.2066H187.199Z" fill="white"/>
    <path d="M202.543 25.1253C204.091 25.1253 204.293 23.5176 204.293 20.2688C204.293 16.9195 204.125 15.0105 202.543 15.0105C200.928 15.0105 200.659 16.1157 200.659 20.8047C200.659 22.2114 200.457 25.1253 202.543 25.1253ZM208.6 12.666V28.575C208.6 29.6468 208.667 33.7999 202.745 33.7999C199.548 33.7999 196.823 32.9961 196.722 29.2449H200.928C200.928 29.8813 201.029 30.4172 201.298 30.7856C201.567 31.1875 202.072 31.3884 202.711 31.3884C203.788 31.3884 204.293 30.3837 204.293 28.843V25.8956H204.226C203.586 27.0679 202.375 27.6707 200.962 27.6707C196.251 27.6707 196.452 23.3837 196.452 19.9339C196.452 16.5846 196.52 12.2975 200.995 12.2975C202.509 12.2975 203.822 12.9674 204.428 14.3741H204.495V12.666H208.6Z" fill="white"/>
    <g opacity="0.7">
    <path d="M142.477 43.028H145.817V43.9193H141.4V35.6541H142.477V43.028Z" fill="white"/>
    <path d="M150.05 43.9193C150.015 43.8436 149.986 43.7471 149.963 43.6298C149.943 43.5087 149.928 43.3819 149.916 43.2494C149.842 43.3554 149.756 43.4557 149.658 43.5503C149.565 43.6449 149.458 43.7281 149.337 43.8001C149.22 43.872 149.091 43.9287 148.951 43.9704C148.814 44.012 148.668 44.0328 148.512 44.0328C148.235 44.0328 147.984 43.995 147.757 43.9193C147.535 43.8436 147.344 43.73 147.184 43.5787C147.024 43.4273 146.901 43.2419 146.815 43.0224C146.73 42.7991 146.687 42.5398 146.687 42.2447C146.687 41.9495 146.739 41.677 146.845 41.4272C146.95 41.1774 147.106 40.9617 147.313 40.7801C147.519 40.5984 147.779 40.4565 148.091 40.3543C148.403 40.2484 148.765 40.1954 149.179 40.1954H149.898V39.5426C149.898 39.1755 149.814 38.9144 149.647 38.7592C149.479 38.604 149.224 38.5265 148.88 38.5265C148.713 38.5265 148.563 38.553 148.43 38.6059C148.301 38.6551 148.192 38.7232 148.102 38.8103C148.013 38.8973 147.945 38.9995 147.898 39.1168C147.851 39.2304 147.828 39.3515 147.828 39.4801H146.792C146.792 39.2606 146.841 39.043 146.938 38.8273C147.04 38.6078 147.182 38.4129 147.365 38.2426C147.553 38.0685 147.779 37.9285 148.044 37.8226C148.309 37.7166 148.606 37.6636 148.933 37.6636C149.226 37.6636 149.493 37.6977 149.735 37.7658C149.98 37.8339 150.191 37.9437 150.366 38.095C150.546 38.2464 150.684 38.4413 150.782 38.6797C150.879 38.9181 150.928 39.2095 150.928 39.5539V42.5796C150.928 42.6818 150.932 42.7896 150.94 42.9031C150.947 43.0167 150.959 43.1283 150.975 43.2381C150.994 43.3478 151.016 43.4538 151.039 43.556C151.066 43.6544 151.096 43.7452 151.127 43.8284V43.9193H150.05ZM148.67 43.1189C148.814 43.1189 148.951 43.098 149.079 43.0564C149.208 43.0148 149.325 42.9618 149.43 42.8975C149.536 42.8293 149.627 42.7537 149.705 42.6704C149.787 42.5834 149.852 42.4944 149.898 42.4036V40.939H149.354C149.105 40.939 148.879 40.9655 148.676 41.0185C148.477 41.0715 148.305 41.1491 148.161 41.2512C148.021 41.3496 147.911 41.4726 147.833 41.6202C147.759 41.7678 147.722 41.9362 147.722 42.1254C147.722 42.3109 147.742 42.4679 147.781 42.5966C147.82 42.7215 147.878 42.8237 147.956 42.9031C148.034 42.9788 148.132 43.0337 148.249 43.0678C148.37 43.1018 148.51 43.1189 148.67 43.1189Z" fill="white"/>
    <path d="M153.354 37.7771L153.383 38.4413C153.574 38.1953 153.798 38.0042 154.056 37.868C154.317 37.7317 154.606 37.6636 154.922 37.6636C155.179 37.6636 155.413 37.7052 155.623 37.7885C155.834 37.868 156.013 37.9985 156.162 38.1802C156.31 38.3581 156.423 38.5889 156.501 38.8727C156.583 39.1528 156.624 39.4934 156.624 39.8945V43.9193H155.594V39.8832C155.594 39.4026 155.51 39.062 155.343 38.8614C155.179 38.657 154.931 38.5548 154.6 38.5548C154.342 38.5548 154.11 38.6381 153.904 38.8046C153.701 38.9711 153.537 39.1887 153.412 39.4574V43.9193H152.377V37.7771H153.354Z" fill="white"/>
    <path d="M157.804 40.57C157.804 40.0667 157.854 39.6315 157.956 39.2644C158.057 38.8973 158.199 38.5965 158.383 38.3618C158.57 38.1234 158.794 37.9474 159.056 37.8339C159.317 37.7204 159.605 37.6636 159.921 37.6636C160.237 37.6636 160.51 37.7261 160.74 37.8509C160.974 37.972 161.173 38.148 161.337 38.3789V35.2H162.372V43.9193H161.425L161.372 43.2608C161.208 43.5105 161.007 43.7017 160.77 43.8341C160.532 43.9666 160.247 44.0328 159.915 44.0328C159.603 44.0328 159.317 43.9741 159.056 43.8568C158.798 43.7357 158.576 43.556 158.389 43.3175C158.205 43.0791 158.061 42.7802 157.956 42.4206C157.854 42.0573 157.804 41.6316 157.804 41.1434V40.57ZM158.839 41.1434C158.839 41.8322 158.944 42.3393 159.155 42.6647C159.366 42.9864 159.709 43.1472 160.185 43.1472C160.473 43.1472 160.709 43.0772 160.892 42.9372C161.076 42.7972 161.224 42.6155 161.337 42.3922V39.2928C161.22 39.0771 161.068 38.9011 160.881 38.7649C160.697 38.6249 160.467 38.5548 160.19 38.5548C159.711 38.5548 159.366 38.7195 159.155 39.0487C158.944 39.378 158.839 39.8851 158.839 40.57V41.1434Z" fill="white"/>
    <path d="M170.26 41.8303C170.26 41.6373 170.237 41.467 170.19 41.3194C170.147 41.1718 170.065 41.0374 169.944 40.9163C169.823 40.7914 169.66 40.676 169.453 40.57C169.246 40.4603 168.979 40.3487 168.651 40.2351C168.3 40.1178 167.983 39.9854 167.698 39.8378C167.413 39.6864 167.169 39.5142 166.967 39.3212C166.768 39.1244 166.614 38.9011 166.505 38.6513C166.395 38.4016 166.341 38.1158 166.341 37.7942C166.341 37.4725 166.397 37.1754 166.51 36.9029C166.627 36.6267 166.791 36.3883 167.002 36.1877C167.216 35.9833 167.474 35.8244 167.774 35.7108C168.078 35.5973 168.415 35.5405 168.786 35.5405C169.199 35.5405 169.564 35.6106 169.88 35.7506C170.2 35.8906 170.467 36.076 170.681 36.3069C170.9 36.5377 171.063 36.8045 171.173 37.1073C171.282 37.4101 171.336 37.7223 171.336 38.0439H170.26C170.26 37.8131 170.231 37.5993 170.172 37.4025C170.118 37.2057 170.03 37.0354 169.909 36.8916C169.788 36.7478 169.634 36.6361 169.447 36.5567C169.264 36.4772 169.043 36.4375 168.786 36.4375C168.548 36.4375 168.343 36.4715 168.172 36.5396C168 36.6078 167.858 36.7024 167.745 36.8235C167.636 36.9408 167.554 37.0808 167.499 37.2435C167.448 37.4063 167.423 37.5841 167.423 37.7771C167.423 38.1253 167.552 38.4167 167.809 38.6513C168.066 38.886 168.464 39.096 169.002 39.2815C169.416 39.4139 169.771 39.5615 170.067 39.7242C170.363 39.8832 170.605 40.0648 170.792 40.2692C170.984 40.4735 171.122 40.7025 171.208 40.9561C171.297 41.2096 171.342 41.4972 171.342 41.8189C171.342 42.1557 171.284 42.4604 171.167 42.7328C171.05 43.0053 170.882 43.2381 170.664 43.4311C170.449 43.6241 170.188 43.7736 169.88 43.8795C169.572 43.9817 169.225 44.0328 168.839 44.0328C168.503 44.0328 168.172 43.9798 167.844 43.8738C167.52 43.7679 167.23 43.6108 166.973 43.4027C166.719 43.1908 166.512 42.9277 166.352 42.6136C166.196 42.2995 166.118 41.9362 166.118 41.5237H167.195C167.195 41.8076 167.238 42.0516 167.324 42.256C167.409 42.4566 167.526 42.6231 167.675 42.7556C167.827 42.888 168.002 42.9864 168.201 43.0507C168.4 43.1113 168.612 43.1416 168.839 43.1416C169.31 43.1416 169.665 43.0242 169.903 42.7896C170.141 42.555 170.26 42.2352 170.26 41.8303Z" fill="white"/>
    <path d="M174.178 42.2503L175.33 37.7771H176.43L174.336 44.8673C174.289 45.0186 174.223 45.1833 174.137 45.3611C174.055 45.539 173.95 45.7036 173.821 45.855C173.692 46.0102 173.536 46.1388 173.353 46.241C173.173 46.347 172.965 46.4 172.727 46.4C172.688 46.4 172.643 46.3962 172.592 46.3886C172.542 46.381 172.491 46.3716 172.44 46.3602C172.39 46.3526 172.341 46.3432 172.294 46.3318C172.251 46.3243 172.216 46.3167 172.189 46.3091V45.4576C172.212 45.4652 172.249 45.4709 172.3 45.4747C172.354 45.4784 172.393 45.4803 172.417 45.4803C172.569 45.4803 172.704 45.4633 172.821 45.4292C172.938 45.3952 173.041 45.3384 173.131 45.2589C173.224 45.1833 173.304 45.0811 173.37 44.9524C173.441 44.8237 173.503 44.6648 173.558 44.4756L173.739 43.8682L171.879 37.7771H173.008L174.178 42.2503Z" fill="white"/>
    <path d="M180.359 42.3468C180.359 42.2333 180.338 42.1311 180.295 42.0403C180.252 41.9457 180.182 41.8568 180.084 41.7735C179.987 41.6865 179.86 41.6013 179.704 41.518C179.552 41.4348 179.363 41.344 179.137 41.2456C178.844 41.1283 178.581 41.0128 178.347 40.8993C178.117 40.7858 177.922 40.6609 177.762 40.5246C177.606 40.3846 177.485 40.2257 177.399 40.0478C177.317 39.8661 177.276 39.6523 177.276 39.4063C177.276 39.1641 177.323 38.9371 177.417 38.7251C177.514 38.5132 177.651 38.3297 177.826 38.1745C178.002 38.0156 178.212 37.8907 178.458 37.7998C178.704 37.709 178.979 37.6636 179.283 37.6636C179.603 37.6636 179.889 37.7109 180.143 37.8055C180.396 37.9001 180.611 38.0326 180.786 38.2029C180.962 38.3694 181.096 38.5662 181.19 38.7933C181.283 39.0203 181.33 39.2644 181.33 39.5255H180.301C180.301 39.4007 180.277 39.2796 180.23 39.1622C180.188 39.0411 180.121 38.9333 180.032 38.8387C179.946 38.7441 179.84 38.6684 179.716 38.6116C179.591 38.5548 179.447 38.5265 179.283 38.5265C179.107 38.5265 178.957 38.5511 178.832 38.6003C178.711 38.6457 178.612 38.7081 178.534 38.7876C178.456 38.8633 178.397 38.9522 178.358 39.0544C178.323 39.1566 178.306 39.2625 178.306 39.3723C178.306 39.4858 178.321 39.5842 178.353 39.6675C178.388 39.7469 178.446 39.8226 178.528 39.8945C178.61 39.9664 178.721 40.0383 178.862 40.1102C179.006 40.1821 179.189 40.2654 179.411 40.36C179.731 40.4811 180.014 40.6041 180.26 40.729C180.509 40.8501 180.718 40.9844 180.886 41.132C181.053 41.2758 181.18 41.4405 181.266 41.6259C181.352 41.8113 181.395 42.0271 181.395 42.273C181.395 42.5417 181.344 42.7858 181.242 43.0053C181.145 43.221 181.005 43.4065 180.821 43.5616C180.638 43.713 180.418 43.8303 180.16 43.9136C179.903 43.9931 179.618 44.0328 179.306 44.0328C178.947 44.0328 178.63 43.9798 178.353 43.8738C178.076 43.7641 177.844 43.6203 177.657 43.4424C177.469 43.2608 177.327 43.0526 177.229 42.818C177.136 42.5834 177.089 42.3393 177.089 42.0857H178.13C178.138 42.3014 178.179 42.4793 178.253 42.6193C178.327 42.7593 178.419 42.871 178.528 42.9542C178.641 43.0375 178.766 43.0961 178.903 43.1302C179.039 43.1605 179.174 43.1756 179.306 43.1756C179.649 43.1756 179.911 43.1018 180.09 42.9542C180.269 42.8029 180.359 42.6004 180.359 42.3468Z" fill="white"/>
    <path d="M183.943 36.2899V37.7771H184.897V38.5889H183.943V42.3979C183.943 42.5569 183.959 42.6855 183.99 42.7839C184.021 42.8785 184.062 42.9523 184.113 43.0053C184.164 43.0583 184.22 43.0943 184.283 43.1132C184.349 43.1283 184.417 43.1359 184.487 43.1359C184.557 43.1359 184.635 43.1283 184.721 43.1132C184.807 43.0943 184.868 43.0791 184.903 43.0678L184.891 43.9193C184.821 43.942 184.727 43.9666 184.61 43.9931C184.497 44.0195 184.351 44.0328 184.171 44.0328C184.004 44.0328 183.844 44.0044 183.692 43.9476C183.54 43.8947 183.405 43.8038 183.288 43.6752C183.175 43.5465 183.083 43.3781 183.013 43.1699C182.947 42.958 182.914 42.6988 182.914 42.3922V38.5889H181.948V37.7771H182.914V36.2899H183.943Z" fill="white"/>
    <path d="M188.235 44.0328C187.857 44.0328 187.516 43.9779 187.211 43.8682C186.907 43.7584 186.648 43.5919 186.433 43.3686C186.223 43.1416 186.061 42.8558 185.948 42.5115C185.835 42.1671 185.778 41.7602 185.778 41.291V40.5984C185.778 40.0573 185.845 39.6012 185.977 39.2304C186.11 38.8557 186.283 38.553 186.498 38.3221C186.716 38.0875 186.966 37.9191 187.247 37.8169C187.527 37.7147 187.818 37.6636 188.118 37.6636C188.516 37.6636 188.855 37.7279 189.136 37.8566C189.417 37.9815 189.647 38.1669 189.826 38.4129C190.006 38.6589 190.136 38.9617 190.218 39.3212C190.3 39.6807 190.341 40.0951 190.341 40.5644V41.1491H186.808V41.291C186.808 41.9495 186.935 42.4282 187.188 42.7272C187.445 43.0261 187.814 43.1756 188.294 43.1756C188.469 43.1756 188.627 43.1586 188.768 43.1245C188.908 43.0905 189.037 43.0432 189.154 42.9826C189.271 42.9183 189.378 42.8445 189.475 42.7612C189.573 42.6742 189.664 42.5796 189.75 42.4774L190.288 43.1132C190.203 43.2305 190.099 43.344 189.978 43.4538C189.858 43.5635 189.713 43.6619 189.546 43.749C189.378 43.8322 189.185 43.9003 188.966 43.9533C188.752 44.0063 188.508 44.0328 188.235 44.0328ZM188.118 38.5265C187.939 38.5265 187.773 38.553 187.621 38.6059C187.469 38.6589 187.334 38.7535 187.217 38.8898C187.104 39.0222 187.013 39.202 186.942 39.429C186.872 39.6561 186.829 39.9418 186.814 40.2862H189.306V40.15C189.294 39.9116 189.267 39.694 189.224 39.4972C189.185 39.2966 189.12 39.1244 189.031 38.9806C188.945 38.8368 188.828 38.7251 188.68 38.6457C188.532 38.5662 188.344 38.5265 188.118 38.5265Z" fill="white"/>
    <path d="M192.404 37.7771L192.428 38.3448C192.611 38.1291 192.827 37.9626 193.077 37.8453C193.331 37.7242 193.623 37.6636 193.954 37.6636C194.274 37.6636 194.563 37.7336 194.82 37.8736C195.082 38.0137 195.286 38.2407 195.434 38.5548C195.614 38.2861 195.84 38.0704 196.113 37.9077C196.39 37.745 196.718 37.6636 197.096 37.6636C197.381 37.6636 197.634 37.7071 197.856 37.7942C198.079 37.8774 198.266 38.0099 198.418 38.1915C198.57 38.3732 198.685 38.604 198.763 38.8841C198.845 39.1641 198.886 39.4972 198.886 39.8832V43.9193H197.856V39.8775C197.856 39.6202 197.831 39.4063 197.78 39.236C197.73 39.0657 197.657 38.9295 197.564 38.8273C197.47 38.7251 197.357 38.6551 197.225 38.6173C197.092 38.5757 196.944 38.5548 196.78 38.5548C196.616 38.5548 196.47 38.587 196.341 38.6513C196.212 38.7157 196.101 38.8046 196.008 38.9181C195.918 39.0317 195.844 39.1641 195.785 39.3155C195.731 39.4669 195.696 39.6296 195.68 39.8037V43.9193H194.639V39.8832C194.639 39.6448 194.614 39.4423 194.563 39.2758C194.516 39.1055 194.446 38.9673 194.352 38.8614C194.259 38.7554 194.146 38.6778 194.013 38.6286C193.88 38.5794 193.732 38.5548 193.568 38.5548C193.28 38.5548 193.048 38.6249 192.872 38.7649C192.697 38.9011 192.56 39.0847 192.463 39.3155V43.9193H191.433V37.7771H192.404Z" fill="white"/>
    <path d="M203.365 42.3468C203.365 42.2333 203.344 42.1311 203.301 42.0403C203.258 41.9457 203.188 41.8568 203.09 41.7735C202.993 41.6865 202.866 41.6013 202.71 41.518C202.558 41.4348 202.369 41.344 202.142 41.2456C201.85 41.1283 201.587 41.0128 201.353 40.8993C201.123 40.7858 200.928 40.6609 200.768 40.5246C200.612 40.3846 200.491 40.2257 200.405 40.0478C200.323 39.8661 200.282 39.6523 200.282 39.4063C200.282 39.1641 200.329 38.9371 200.423 38.7251C200.52 38.5132 200.657 38.3297 200.832 38.1745C201.008 38.0156 201.218 37.8907 201.464 37.7998C201.71 37.709 201.984 37.6636 202.289 37.6636C202.608 37.6636 202.895 37.7109 203.149 37.8055C203.402 37.9001 203.617 38.0326 203.792 38.2029C203.968 38.3694 204.102 38.5662 204.196 38.7933C204.289 39.0203 204.336 39.2644 204.336 39.5255H203.306C203.306 39.4007 203.283 39.2796 203.236 39.1622C203.193 39.0411 203.127 38.9333 203.037 38.8387C202.952 38.7441 202.846 38.6684 202.722 38.6116C202.597 38.5548 202.452 38.5265 202.289 38.5265C202.113 38.5265 201.963 38.5511 201.838 38.6003C201.717 38.6457 201.618 38.7081 201.54 38.7876C201.462 38.8633 201.403 38.9522 201.364 39.0544C201.329 39.1566 201.312 39.2625 201.312 39.3723C201.312 39.4858 201.327 39.5842 201.359 39.6675C201.394 39.7469 201.452 39.8226 201.534 39.8945C201.616 39.9664 201.727 40.0383 201.867 40.1102C202.012 40.1821 202.195 40.2654 202.417 40.36C202.737 40.4811 203.02 40.6041 203.266 40.729C203.515 40.8501 203.724 40.9844 203.891 41.132C204.059 41.2758 204.186 41.4405 204.272 41.6259C204.358 41.8113 204.4 42.0271 204.4 42.273C204.4 42.5417 204.35 42.7858 204.248 43.0053C204.151 43.221 204.01 43.4065 203.827 43.5616C203.644 43.713 203.423 43.8303 203.166 43.9136C202.909 43.9931 202.624 44.0328 202.312 44.0328C201.953 44.0328 201.635 43.9798 201.359 43.8738C201.082 43.7641 200.85 43.6203 200.662 43.4424C200.475 43.2608 200.333 43.0526 200.235 42.818C200.142 42.5834 200.095 42.3393 200.095 42.0857H201.136C201.144 42.3014 201.185 42.4793 201.259 42.6193C201.333 42.7593 201.425 42.871 201.534 42.9542C201.647 43.0375 201.772 43.0961 201.908 43.1302C202.045 43.1605 202.179 43.1756 202.312 43.1756C202.655 43.1756 202.917 43.1018 203.096 42.9542C203.275 42.8029 203.365 42.6004 203.365 42.3468Z" fill="white"/>
    </g>
</svg>
