<svg width="400" height="111" viewBox="0 0 400 111" fill="none" xmlns="http://www.w3.org/2000/svg">
<path d="M34.3657 19.3354C34.3657 19.3354 33.6734 11.1424 33.6104 7.7997C33.5475 4.58806 33.4845 0.458791 33.4845 0.458791C33.4845 0.458791 34.8063 0.327708 35.6875 0.524339C36.5686 0.72097 37.4498 1.17978 37.4498 1.17978C37.4498 1.17978 36.8204 6.22665 36.3798 9.4383C35.7504 14.4196 34.3657 19.3354 34.3657 19.3354Z" fill="#E3342F"/>
<path d="M30.7781 19.2699C30.7781 19.2699 31.911 12.3222 32.2887 7.9308C32.6663 3.60491 32.9181 0.393267 32.9181 0.393267C32.9181 0.393267 32.4775 0 30.9669 0C29.5193 0 28.8898 0.327719 28.8898 0.327719C28.8898 0.327719 29.2046 5.63675 29.3304 7.99633C29.6451 10.3559 30.7781 19.2699 30.7781 19.2699Z" fill="#E3342F"/>
<path d="M27.631 19.3354C27.631 19.3354 28.3234 11.1424 28.3863 7.7997C28.4493 4.58806 28.5122 0.458791 28.5122 0.458791C28.5122 0.458791 27.1904 0.327708 26.3093 0.524339C25.4281 0.72097 24.5469 1.17978 24.5469 1.17978C24.5469 1.17978 25.1763 6.22665 25.6169 9.4383C26.2463 14.4196 27.631 19.3354 27.631 19.3354Z" fill="#E3342F"/>
<path d="M24.3581 20.253C24.3581 20.253 18.3158 14.944 15.987 12.6499C13.784 10.487 10.9517 7.53754 10.9517 7.53754C10.9517 7.53754 11.8329 6.4233 12.5882 5.96449C13.3435 5.44014 14.2876 5.11241 14.2876 5.11241C14.2876 5.11241 17.2458 9.11058 19.134 11.7323C21.9664 15.7305 24.3581 20.253 24.3581 20.253Z" fill="#E3342F"/>
<path d="M22.1552 22.6782C22.1552 22.6782 18.0011 17.1069 15.3576 13.6986C12.7141 10.2904 10.637 7.9308 10.637 7.9308C10.637 7.9308 10.0705 7.99634 9.00054 9.11058C7.99349 10.1593 7.80466 10.8803 7.80466 10.8803C7.80466 10.8803 11.707 14.3541 13.4064 15.8616C15.0429 17.3035 22.1552 22.6782 22.1552 22.6782Z" fill="#E3342F"/>
<path d="M19.5746 25.2344C19.5746 25.2344 14.4764 18.9421 12.2735 16.517C10.1964 14.223 7.42702 11.208 7.42702 11.208C7.42702 11.208 6.41997 12.1256 5.91644 12.9121C5.41291 13.6986 5.03527 14.6163 5.03527 14.6163C5.03527 14.6163 9.00054 17.7624 11.4552 19.7287C15.2946 22.7437 19.5746 25.2344 19.5746 25.2344Z" fill="#E3342F"/>
<path d="M37.261 20.6463C37.261 20.6463 43.3033 15.3372 45.6321 13.0432C47.835 10.8803 50.6674 7.9308 50.6674 7.9308C50.6674 7.9308 49.7862 6.88209 49.0309 6.35774C48.2756 5.83338 47.3315 5.50567 47.3315 5.50567C47.3315 5.50567 44.3733 9.50385 42.4851 12.1256C39.5898 16.1238 37.261 20.6463 37.261 20.6463Z" fill="#E3342F"/>
<path d="M39.4639 23.0714C39.4639 23.0714 43.618 17.5002 46.2615 14.0919C48.905 10.7492 50.9821 8.32405 50.9821 8.32405C50.9821 8.32405 51.5485 8.3896 52.6185 9.50385C53.6256 10.6181 53.8144 11.2735 53.8144 11.2735C53.8144 11.2735 49.9121 14.7473 48.2127 16.2549C46.5762 17.6968 39.4639 23.0714 39.4639 23.0714Z" fill="#E3342F"/>
<path d="M42.0445 25.6276C42.0445 25.6276 47.0798 19.3354 49.3456 16.9103C51.4227 14.6163 54.1921 11.6668 54.1921 11.6668C54.1921 11.6668 55.1991 12.5844 55.7026 13.3709C56.2062 14.1575 56.5838 15.0751 56.5838 15.0751C56.5838 15.0751 52.6185 18.2212 50.1639 20.1875C46.3245 23.1369 42.0445 25.6276 42.0445 25.6276Z" fill="#E3342F"/>
<path d="M18.4417 28.5771C18.4417 28.5771 10.5741 29.2981 7.36408 29.3636C4.34292 29.4292 0.314704 29.4947 0.314704 29.4947C0.314704 29.4947 0.188822 28.1183 0.377645 27.2007C0.566467 26.2831 1.00705 25.3654 1.00705 25.3654C1.00705 25.3654 5.8535 26.0209 8.87466 26.4797C13.7211 27.1351 18.4417 28.5771 18.4417 28.5771Z" fill="#E3342F"/>
<path d="M18.3787 32.2475C18.3787 32.2475 11.707 31.0677 7.5529 30.6745C3.39881 30.2157 0.377645 30.019 0.377645 30.019C0.377645 30.019 0 30.4779 0 32.0509C0 33.5584 0.314704 34.2138 0.314704 34.2138C0.314704 34.2138 5.41291 33.8861 7.61584 33.7551C9.88171 33.4929 18.3787 32.2475 18.3787 32.2475Z" fill="#E3342F"/>
<path d="M18.4417 35.5903C18.4417 35.5903 10.5741 34.8693 7.36408 34.8038C4.34292 34.7382 0.314704 34.6727 0.314704 34.6727C0.314704 34.6727 0.188822 36.0491 0.377645 36.9667C0.566467 37.8843 1.00705 38.8019 1.00705 38.8019C1.00705 38.8019 5.8535 38.1465 8.87466 37.6877C13.7211 37.0322 18.4417 35.5903 18.4417 35.5903Z" fill="#E3342F"/>
<path d="M43.3033 35.5903C43.3033 35.5903 51.108 34.8693 54.3809 34.8038C57.4021 34.7382 61.3673 34.6727 61.3673 34.6727C61.3673 34.6727 61.4932 36.0491 61.3044 36.9667C61.1156 37.8843 60.675 38.8019 60.675 38.8019C60.675 38.8019 55.8285 38.1465 52.8074 37.6877C48.0239 37.0322 43.3033 35.5903 43.3033 35.5903Z" fill="#E3342F"/>
<path d="M43.3662 31.9198C43.3662 31.9198 50.038 33.0996 54.1921 33.4929C58.3462 33.8861 61.3673 34.1483 61.3673 34.1483C61.3673 34.1483 61.745 33.6895 61.745 32.1165C61.745 30.6089 61.4303 29.9535 61.4303 29.9535C61.4303 29.9535 56.3321 30.2812 54.1291 30.4123C51.8633 30.6745 43.3662 31.9198 43.3662 31.9198Z" fill="#E3342F"/>
<path d="M43.3033 28.5771C43.3033 28.5771 51.108 29.2981 54.3809 29.3636C57.4021 29.4292 61.3673 29.4947 61.3673 29.4947C61.3673 29.4947 61.4932 28.1183 61.3044 27.2007C61.1156 26.2831 60.675 25.3654 60.675 25.3654C60.675 25.3654 55.8285 26.0209 52.8074 26.4797C48.0239 27.1351 43.3033 28.5771 43.3033 28.5771Z" fill="#E3342F"/>
<path d="M27.631 45.0941C27.631 45.0941 28.3234 53.2871 28.3863 56.6298C28.4493 59.8415 28.5122 63.9707 28.5122 63.9707C28.5122 63.9707 27.1904 64.1018 26.3093 63.9052C25.4281 63.7086 24.5469 63.2498 24.5469 63.2498C24.5469 63.2498 25.1763 58.2029 25.6169 54.9912C26.2463 50.0099 27.631 45.0941 27.631 45.0941Z" fill="#E3342F"/>
<path d="M31.1557 45.1597C31.1557 45.1597 30.0228 52.1073 29.6451 56.4987C29.2045 60.8246 29.0157 64.0363 29.0157 64.0363C29.0157 64.0363 29.4563 64.4295 30.9669 64.4295C32.4145 64.4295 33.0439 64.1018 33.0439 64.1018C33.0439 64.1018 32.7292 58.7928 32.6034 56.4332C32.3516 54.0081 31.1557 45.1597 31.1557 45.1597Z" fill="#E3342F"/>
<path d="M34.3657 45.0941C34.3657 45.0941 33.6734 53.2871 33.6104 56.6298C33.5475 59.8415 33.4845 63.9707 33.4845 63.9707C33.4845 63.9707 34.8063 64.1018 35.6875 63.9052C36.5686 63.7086 37.4498 63.2498 37.4498 63.2498C37.4498 63.2498 36.8204 58.2029 36.3798 54.9912C35.7504 50.0099 34.3657 45.0941 34.3657 45.0941Z" fill="#E3342F"/>
<path d="M37.0092 43.5211C37.0092 43.5211 43.0515 48.8301 45.3803 51.1242C47.5833 53.2871 50.4156 56.2366 50.4156 56.2366C50.4156 56.2366 49.5344 57.3508 48.7792 57.8096C48.0239 58.334 47.0798 58.6617 47.0798 58.6617C47.0798 58.6617 44.1215 54.6635 42.2333 52.0418C39.401 48.0436 37.0092 43.5211 37.0092 43.5211Z" fill="#E3342F"/>
<path d="M39.2121 41.0959C39.2121 41.0959 43.3662 46.6672 46.0098 50.0755C48.6533 53.4182 50.7303 55.8433 50.7303 55.8433C50.7303 55.8433 51.2968 55.7778 52.3668 54.6635C53.3738 53.5493 53.5627 52.8938 53.5627 52.8938C53.5627 52.8938 49.6603 49.42 47.9609 47.9125C46.3245 46.4706 39.2121 41.0959 39.2121 41.0959Z" fill="#E3342F"/>
<path d="M41.7927 38.5397C41.7927 38.5397 46.8909 44.832 49.0939 47.2571C51.1709 49.5511 53.9403 52.5006 53.9403 52.5006C53.9403 52.5006 54.9474 51.583 55.4509 50.7964C55.9544 50.0099 56.3321 49.0923 56.3321 49.0923C56.3321 49.0923 52.3668 45.9462 49.9121 43.9799C46.0727 41.0304 41.7927 38.5397 41.7927 38.5397Z" fill="#E3342F"/>
<path d="M24.6728 43.9143C24.6728 43.9143 18.6305 49.1578 16.3017 51.5174C14.0987 53.6804 11.2664 56.5643 11.2664 56.5643C11.2664 56.5643 12.1476 57.6785 12.9029 58.1373C13.6582 58.6617 14.6023 58.9894 14.6023 58.9894C14.6023 58.9894 17.6234 54.9912 19.4487 52.3695C22.2811 48.4369 24.6728 43.9143 24.6728 43.9143Z" fill="#E3342F"/>
<path d="M22.4699 41.4892C22.4699 41.4892 18.3158 47.0604 15.6093 50.4032C12.9658 53.7459 10.8258 56.171 10.8258 56.171C10.8258 56.171 10.2594 56.1055 9.18936 54.9912C8.18231 53.877 7.99349 53.2215 7.99349 53.2215C7.99349 53.2215 11.8958 49.7477 13.5952 48.3058C15.2946 46.7983 22.4699 41.4892 22.4699 41.4892Z" fill="#E3342F"/>
<path d="M19.8893 38.933C19.8893 38.933 14.7911 45.2252 12.5882 47.6503C10.5111 49.9444 7.67878 52.8938 7.67878 52.8938C7.67878 52.8938 6.67173 51.9762 6.1682 51.1897C5.66468 50.4032 5.28703 49.42 5.28703 49.42C5.28703 49.42 9.2523 46.2739 11.707 44.3731C15.5464 41.3581 19.8893 38.933 19.8893 38.933Z" fill="#E3342F"/>
<path d="M87.6934 53.961C76.7884 53.961 74.7236 47.6029 75.2398 40.3456H84.0154C84.0154 44.3274 84.2089 47.7313 89.0484 47.7313C92.0166 47.7313 93.5007 45.8046 93.5007 42.9787C93.5007 35.4003 75.756 34.9507 75.756 22.4913C75.756 15.9404 78.9178 10.7383 89.6291 10.7383C98.2111 10.7383 102.47 14.5917 101.889 23.3262H93.3071C93.3071 20.1792 92.7909 16.968 89.242 16.968C86.4028 16.968 84.6606 18.5094 84.6606 21.4637C84.6606 29.4275 102.405 28.721 102.405 41.8869C102.405 52.6766 94.4041 53.961 87.6934 53.961Z" fill="white"/>
<path d="M131.765 11.3163V18.3167H121.957V53.2546H113.182V18.3167H103.374V11.3163H131.765Z" fill="white"/>
<path d="M145.896 53.2546V11.3163H168.868V17.7387H154.672V28.0788H167.771V34.5654H154.672V46.768H169.319V53.2546H145.896Z" fill="white"/>
<path d="M180.74 26.8585H180.869C182.483 24.2253 184.741 23.3262 187.838 23.3262C191.774 23.3262 195.194 25.6383 195.194 29.6844V53.1904H186.999V32.9598C186.999 30.3266 186.548 28.3357 183.902 28.3357C181.257 28.3357 180.805 30.3908 180.805 32.9598V53.1904H172.61V23.9042H180.805V26.8585H180.74Z" fill="white"/>
<path d="M210.358 47.7955C213.326 47.7955 213.713 44.7128 213.713 38.4831C213.713 32.0607 213.39 28.3999 210.358 28.3999C207.26 28.3999 206.744 30.5193 206.744 39.5106C206.744 42.208 206.357 47.7955 210.358 47.7955ZM221.908 23.9042V54.4106C221.908 56.4658 222.037 64.4296 210.68 64.4296C204.55 64.4296 199.324 62.8882 199.13 55.6951H207.196C207.196 56.9153 207.39 57.9429 207.906 58.6494C208.422 59.4201 209.39 59.8054 210.616 59.8054C212.681 59.8054 213.649 57.8787 213.649 54.9244V49.2727H213.52C212.294 51.5205 209.971 52.6766 207.261 52.6766C198.227 52.6766 198.614 44.4559 198.614 37.8408C198.614 31.4184 198.743 23.1977 207.325 23.1977C210.229 23.1977 212.745 24.4822 213.907 27.1796H214.036V23.9042H221.908Z" fill="white"/>
<path d="M234.813 53.2546H226.618V23.9042H234.813V53.2546ZM234.813 17.7387H226.618V11.3163H234.813V17.7387Z" fill="white"/>
<path d="M247.589 26.8585H247.718C249.331 24.2253 251.59 23.3262 254.687 23.3262C258.623 23.3262 262.043 25.6383 262.043 29.6844V53.1904H253.848V32.9598C253.848 30.3266 253.397 28.3357 250.751 28.3357C248.106 28.3357 247.654 30.3908 247.654 32.9598V53.1904H239.459V23.9042H247.654V26.8585H247.589Z" fill="white"/>
<path d="M281.272 35.2719C281.272 32.446 281.401 28.3357 277.465 28.3357C273.658 28.3357 273.722 32.7671 273.722 35.2719H281.272ZM273.722 39.896C273.722 43.3641 273.851 48.6305 277.465 48.6305C280.369 48.6305 280.949 45.8688 280.949 43.4283H289.273C289.144 46.6395 288.112 49.2085 286.111 51.0067C284.176 52.805 281.272 53.8326 277.4 53.8326C266.754 53.8326 265.399 47.4102 265.399 38.2262C265.399 30.1982 266.56 23.3904 277.4 23.3904C288.499 23.3904 289.725 30.5193 289.402 39.9602H273.722V39.896Z" fill="white"/>
<path d="M308.115 35.2719C308.115 32.446 308.244 28.3357 304.308 28.3357C300.501 28.3357 300.565 32.7671 300.565 35.2719H308.115ZM300.565 39.896C300.565 43.3641 300.694 48.6305 304.308 48.6305C307.211 48.6305 307.792 45.8688 307.792 43.4283H316.116C315.987 46.6395 314.955 49.2085 312.954 51.0067C311.018 52.805 308.115 53.8326 304.243 53.8326C293.661 53.8326 292.241 47.4102 292.241 38.2262C292.241 30.1982 293.403 23.3904 304.243 23.3904C315.342 23.3904 316.568 30.5193 316.245 39.9602H300.565V39.896Z" fill="white"/>
<path d="M327.537 23.9042V27.6934H327.666C329.215 24.3538 331.989 23.3262 335.28 23.3262V30.6477C328.053 30.1982 327.924 34.3727 327.924 37.2628V53.2546H319.729V23.9042H327.537Z" fill="white"/>
<path d="M346.056 53.2546H337.861V23.9042H346.056V53.2546ZM346.056 17.7387H337.861V11.3163H346.056V17.7387Z" fill="white"/>
<path d="M358.961 26.8585C360.574 24.2253 362.833 23.3262 365.93 23.3262C369.866 23.3262 373.286 25.6383 373.286 29.6844V53.1904H364.962V32.9598C364.962 30.3266 364.511 28.3357 361.865 28.3357C359.219 28.3357 358.768 30.3908 358.768 32.9598V53.1904H350.573V23.9042H358.768V26.8585H358.961Z" fill="white"/>
<path d="M388.385 47.7955C391.353 47.7955 391.741 44.7128 391.741 38.4831C391.741 32.0607 391.418 28.3999 388.385 28.3999C385.288 28.3999 384.772 30.5193 384.772 39.5106C384.772 42.208 384.385 47.7955 388.385 47.7955ZM400 23.9042V54.4106C400 56.4658 400.129 64.4296 388.772 64.4296C382.642 64.4296 377.416 62.8882 377.222 55.6951H385.288C385.288 56.9153 385.482 57.9429 385.998 58.6494C386.514 59.4201 387.482 59.8054 388.708 59.8054C390.773 59.8054 391.741 57.8787 391.741 54.9244V49.2727H391.611C390.385 51.5205 388.063 52.6766 385.352 52.6766C376.319 52.6766 376.706 44.4559 376.706 37.8408C376.706 31.4184 376.835 23.1977 385.417 23.1977C388.321 23.1977 390.837 24.4822 391.999 27.1796H392.128V23.9042H400Z" fill="white"/>
<g opacity="0.7">
</g>
</svg>
