<?xml version="1.0"?>
<svg width="48" height="48" viewBox="0 0 48 48" fill="none" xmlns="http://www.w3.org/2000/svg">
    <path d="M26.5873 14.6713C26.5873 14.6713 26.0651 8.73703 26.0176 6.31587C25.9702 3.98966 25.9227 0.998809 25.9227 0.998809C25.9227 0.998809 26.9196 0.903864 27.5843 1.04629C28.2489 1.18871 28.9135 1.52102 28.9135 1.52102C28.9135 1.52102 28.4388 5.1765 28.1065 7.50272C27.6317 11.1107 26.5873 14.6713 26.5873 14.6713Z" fill="white"/>
    <path d="M23.8813 14.6238C23.8813 14.6238 24.7358 9.59157 25.0207 6.41083C25.3055 3.27756 25.4954 0.951349 25.4954 0.951349C25.4954 0.951349 25.1631 0.666504 24.0237 0.666504C22.9318 0.666504 22.4571 0.903873 22.4571 0.903873C22.4571 0.903873 22.6945 4.74924 22.7894 6.45829C23.0268 8.16734 23.8813 14.6238 23.8813 14.6238Z" fill="white"/>
    <path d="M21.5076 14.6713C21.5076 14.6713 22.0298 8.73703 22.0773 6.31587C22.1248 3.98966 22.1723 0.998809 22.1723 0.998809C22.1723 0.998809 21.1753 0.903864 20.5107 1.04629C19.8461 1.18871 19.1814 1.52102 19.1814 1.52102C19.1814 1.52102 19.6562 5.1765 19.9885 7.50272C20.4632 11.1107 21.5076 14.6713 21.5076 14.6713Z" fill="white"/>
    <path d="M19.039 15.3359C19.039 15.3359 14.4815 11.4905 12.725 9.82893C11.0634 8.26229 8.9271 6.12598 8.9271 6.12598C8.9271 6.12598 9.59173 5.31893 10.1614 4.98662C10.7311 4.60683 11.4432 4.36945 11.4432 4.36945C11.4432 4.36945 13.6745 7.26535 15.0987 9.1643C17.235 12.0602 19.039 15.3359 19.039 15.3359Z" fill="white"/>
    <path d="M17.3774 17.0924C17.3774 17.0924 14.2442 13.0571 12.2503 10.5885C10.2564 8.11988 8.68973 6.41083 8.68973 6.41083C8.68973 6.41083 8.26246 6.4583 7.45541 7.26535C6.69583 8.02493 6.55341 8.54715 6.55341 8.54715C6.55341 8.54715 9.49678 11.0632 10.7786 12.1551C12.0129 13.1996 17.3774 17.0924 17.3774 17.0924Z" fill="white"/>
    <path d="M15.431 18.9439C15.431 18.9439 11.5856 14.3864 9.92404 12.6299C8.35741 10.9683 6.26857 8.78451 6.26857 8.78451C6.26857 8.78451 5.50899 9.44913 5.1292 10.0188C4.74941 10.5885 4.46457 11.2531 4.46457 11.2531C4.46457 11.2531 7.45541 13.5319 9.30689 14.9561C12.2028 17.1399 15.431 18.9439 15.431 18.9439Z" fill="white"/>
    <path d="M28.7711 15.6207C28.7711 15.6207 33.3286 11.7754 35.0851 10.1138C36.7467 8.54714 38.883 6.41083 38.883 6.41083C38.883 6.41083 38.2184 5.65124 37.6487 5.27145C37.079 4.89166 36.3669 4.65429 36.3669 4.65429C36.3669 4.65429 34.1356 7.55019 32.7114 9.44914C30.5276 12.345 28.7711 15.6207 28.7711 15.6207Z" fill="white"/>
    <path d="M30.4327 17.3772C30.4327 17.3772 33.566 13.342 35.5599 10.8734C37.5538 8.4522 39.1204 6.69566 39.1204 6.69566C39.1204 6.69566 39.5476 6.74314 40.3547 7.55019C41.1143 8.35725 41.2567 8.83198 41.2567 8.83198C41.2567 8.83198 38.3133 11.3481 37.0315 12.44C35.7972 13.4844 30.4327 17.3772 30.4327 17.3772Z" fill="white"/>
    <path d="M32.3791 19.2287C32.3791 19.2287 36.177 14.6712 37.8861 12.9147C39.4527 11.2531 41.5415 9.11682 41.5415 9.11682C41.5415 9.11682 42.3011 9.78146 42.6809 10.3511C43.0607 10.9208 43.3455 11.5855 43.3455 11.5855C43.3455 11.5855 40.3547 13.8642 38.5032 15.2884C35.6073 17.4247 32.3791 19.2287 32.3791 19.2287Z" fill="white"/>
    <path d="M14.5765 21.3651C14.5765 21.3651 8.64225 21.8873 6.22109 21.9347C3.94235 21.9822 0.904036 22.0297 0.904036 22.0297C0.904036 22.0297 0.809089 21.0327 0.95151 20.3681C1.09393 19.7035 1.42625 19.0388 1.42625 19.0388C1.42625 19.0388 5.08172 19.5136 7.36046 19.8459C11.0159 20.3206 14.5765 21.3651 14.5765 21.3651Z" fill="white"/>
    <path d="M14.529 24.0236C14.529 24.0236 9.49678 23.169 6.36351 22.8842C3.23025 22.5519 0.95151 22.4095 0.95151 22.4095C0.95151 22.4095 0.666668 22.7418 0.666668 23.8812C0.666668 24.973 0.904037 25.4478 0.904037 25.4478C0.904037 25.4478 4.74941 25.2104 6.41099 25.1155C8.12004 24.9256 14.529 24.0236 14.529 24.0236Z" fill="white"/>
    <path d="M14.5765 26.4447C14.5765 26.4447 8.64225 25.9225 6.22109 25.8751C3.94235 25.8276 0.904036 25.7801 0.904036 25.7801C0.904036 25.7801 0.809089 26.7771 0.95151 27.4417C1.09393 28.1063 1.42625 28.7709 1.42625 28.7709C1.42625 28.7709 5.08172 28.2962 7.36046 27.9639C11.0159 27.4892 14.5765 26.4447 14.5765 26.4447Z" fill="white"/>
    <path d="M33.3286 26.4447C33.3286 26.4447 39.2153 25.9225 41.684 25.8751C43.9627 25.8276 46.9536 25.7801 46.9536 25.7801C46.9536 25.7801 47.0485 26.7771 46.9061 27.4417C46.7637 28.1063 46.4313 28.7709 46.4313 28.7709C46.4313 28.7709 42.7759 28.2962 40.4971 27.9639C36.8891 27.4892 33.3286 26.4447 33.3286 26.4447Z" fill="white"/>
    <path d="M33.3761 23.7862C33.3761 23.7862 38.4083 24.6407 41.5415 24.9256C44.6748 25.2104 46.9536 25.4003 46.9536 25.4003C46.9536 25.4003 47.2384 25.068 47.2384 23.9286C47.2384 22.8367 47.001 22.362 47.001 22.362C47.001 22.362 43.1557 22.5994 41.4941 22.6943C39.785 22.8842 33.3761 23.7862 33.3761 23.7862Z" fill="white"/>
    <path d="M33.3286 21.3651C33.3286 21.3651 39.2153 21.8873 41.684 21.9347C43.9627 21.9822 46.9536 22.0297 46.9536 22.0297C46.9536 22.0297 47.0485 21.0327 46.9061 20.3681C46.7637 19.7035 46.4313 19.0388 46.4313 19.0388C46.4313 19.0388 42.7759 19.5136 40.4971 19.8459C36.8891 20.3206 33.3286 21.3651 33.3286 21.3651Z" fill="white"/>
    <path d="M21.5076 33.3284C21.5076 33.3284 22.0298 39.2626 22.0773 41.6838C22.1248 44.01 22.1723 47.0009 22.1723 47.0009C22.1723 47.0009 21.1753 47.0958 20.5107 46.9534C19.8461 46.811 19.1814 46.4786 19.1814 46.4786C19.1814 46.4786 19.6562 42.8232 19.9885 40.497C20.4632 36.889 21.5076 33.3284 21.5076 33.3284Z" fill="white"/>
    <path d="M24.1662 33.3759C24.1662 33.3759 23.3116 38.4081 23.0268 41.5888C22.6945 44.7221 22.5521 47.0483 22.5521 47.0483C22.5521 47.0483 22.8844 47.3332 24.0237 47.3332C25.1156 47.3332 25.5904 47.0958 25.5904 47.0958C25.5904 47.0958 25.353 43.2504 25.2581 41.5414C25.0682 39.7849 24.1662 33.3759 24.1662 33.3759Z" fill="white"/>
    <path d="M26.5873 33.3284C26.5873 33.3284 26.0651 39.2626 26.0176 41.6838C25.9702 44.01 25.9227 47.0009 25.9227 47.0009C25.9227 47.0009 26.9196 47.0958 27.5843 46.9534C28.2489 46.811 28.9135 46.4786 28.9135 46.4786C28.9135 46.4786 28.4388 42.8232 28.1065 40.497C27.6317 36.889 26.5873 33.3284 26.5873 33.3284Z" fill="white"/>
    <path d="M28.5812 32.1891C28.5812 32.1891 33.1387 36.0344 34.8952 37.696C36.5568 39.2626 38.6931 41.399 38.6931 41.399C38.6931 41.399 38.0285 42.206 37.4588 42.5383C36.8891 42.9181 36.177 43.1555 36.177 43.1555C36.177 43.1555 33.9457 40.2596 32.5215 38.3606C30.3852 35.4647 28.5812 32.1891 28.5812 32.1891Z" fill="white"/>
    <path d="M30.2428 30.4325C30.2428 30.4325 33.3761 34.4678 35.37 36.9364C37.3639 39.3576 38.9305 41.1141 38.9305 41.1141C38.9305 41.1141 39.3578 41.0666 40.1648 40.2596C40.9244 39.4525 41.0668 38.9778 41.0668 38.9778C41.0668 38.9778 38.1234 36.4617 36.8416 35.3698C35.6073 34.3254 30.2428 30.4325 30.2428 30.4325Z" fill="white"/>
    <path d="M32.1892 28.581C32.1892 28.581 36.0346 33.1385 37.6962 34.8951C39.2628 36.5566 41.3517 38.693 41.3517 38.693C41.3517 38.693 42.1112 38.0283 42.491 37.4586C42.8708 36.889 43.1557 36.2243 43.1557 36.2243C43.1557 36.2243 40.1648 33.9456 38.3133 32.5214C35.4174 30.3851 32.1892 28.581 32.1892 28.581Z" fill="white"/>
    <path d="M19.2764 32.4739C19.2764 32.4739 14.7189 36.2718 12.9624 37.9809C11.3008 39.5475 9.16446 41.6363 9.16446 41.6363C9.16446 41.6363 9.8291 42.4434 10.3988 42.7757C10.9685 43.1555 11.6806 43.3929 11.6806 43.3929C11.6806 43.3929 13.9593 40.497 15.336 38.598C17.4724 35.7496 19.2764 32.4739 19.2764 32.4739Z" fill="white"/>
    <path d="M17.6148 30.7174C17.6148 30.7174 14.4815 34.7526 12.4402 37.1738C10.4463 39.595 8.83215 41.3515 8.83215 41.3515C8.83215 41.3515 8.40489 41.304 7.59783 40.497C6.83825 39.6899 6.69583 39.2152 6.69583 39.2152C6.69583 39.2152 9.6392 36.6991 10.921 35.6546C12.2028 34.5627 17.6148 30.7174 17.6148 30.7174Z" fill="white"/>
    <path d="M15.6684 28.8659C15.6684 28.8659 11.823 33.4234 10.1614 35.1799C8.59478 36.8415 6.45846 38.9778 6.45846 38.9778C6.45846 38.9778 5.69888 38.3132 5.31909 37.7435C4.9393 37.1738 4.65446 36.4617 4.65446 36.4617C4.65446 36.4617 7.64531 34.1829 9.49678 32.8062C12.3927 30.6224 15.6684 28.8659 15.6684 28.8659Z" fill="white"/>
</svg>