<?xml version="1.0"?>
<svg width="21" height="23" viewBox="0 0 21 23" fill="none" xmlns="http://www.w3.org/2000/svg">
<path fill-rule="evenodd" clip-rule="evenodd" d="M6.25263 0.0078125H6.83158H13.7789H14.3579V0.58676V3.4815H20.0316H20.6105V4.63939H20.0316H14.3579H13.2H7.41053H6.25263H0.578947H0V3.4815H0.578947H6.25263V0.58676V0.0078125ZM7.41053 3.4815H13.2V1.16571H7.41053V3.4815ZM3.24211 6.14465V5.56571H2.08421V6.14465V20.0394C2.08421 21.1265 2.96555 22.0078 4.05263 22.0078H16.5579C17.645 22.0078 18.5263 21.1265 18.5263 20.0394V6.14465V5.56571H17.3684V6.14465V20.0394C17.3684 20.487 17.0055 20.8499 16.5579 20.8499H4.05263C3.60504 20.8499 3.24211 20.487 3.24211 20.0394V6.14465ZM10.8842 9.27097V8.69202H9.72632V9.27097V16.9131V17.492H10.8842V16.9131V9.27097ZM7.41053 8.69202V9.27097V16.9131V17.492H6.25263V16.9131V9.27097V8.69202H7.41053ZM14.3579 9.27097V8.69202H13.2V9.27097V16.9131V17.492H14.3579V16.9131V9.27097Z" fill="#ED1D24"/>
</svg>