<?xml version="1.0"?>
<svg width="22" height="22" viewBox="0 0 22 22" fill="none" xmlns="http://www.w3.org/2000/svg">
<path d="M20.9362 19.2194L19.3908 16.6435C18.6771 15.4546 18.3 14.0928 18.3 12.7068V10.4504C18.3 7.60176 16.3991 5.19238 13.7998 4.41563V2.80008C13.7998 1.80733 12.9924 1 11.9997 1C11.0069 1 10.1996 1.80733 10.1996 2.80008V4.41563C7.60034 5.19238 5.69947 7.60176 5.69947 10.4504V12.7068C5.69947 14.0928 5.32234 15.4537 4.60951 16.6426L3.06416 19.2185C2.98046 19.3581 2.97865 19.5309 3.05876 19.6722C3.13888 19.8134 3.28739 19.9008 3.44939 19.9008H20.55C20.7121 19.9008 20.8614 19.8135 20.9416 19.6731C21.0217 19.5326 21.019 19.358 20.9362 19.2194Z" fill="#6D6E71"/>
<path d="M9.16553 20.8003C9.67315 21.8605 10.7478 22.6004 11.9997 22.6004C13.2516 22.6004 14.3263 21.8605 14.8339 20.8003H9.16553Z" fill="#6D6E71"/>
</svg>