<svg width="80" height="66" viewBox="0 0 80 66" fill="none" xmlns="http://www.w3.org/2000/svg">
<path d="M0 0.740723V65.2434H80V0.740723H0ZM2.58064 3.32083H21.9353V62.6633H2.58064V3.32083ZM77.4193 62.6633H24.516V3.32083H77.4193V62.6633Z" fill="#FF3131"/>
<path d="M67.742 20.0918C65.2516 20.0918 63.226 22.1171 63.226 24.6069C63.226 27.0968 65.2516 29.122 67.742 29.122C70.2324 29.122 72.2581 27.0968 72.2581 24.6069C72.2581 22.1171 70.2321 20.0918 67.742 20.0918ZM67.742 26.5422C66.6748 26.5422 65.8066 25.6739 65.8066 24.6072C65.8066 23.5402 66.6751 22.6722 67.742 22.6722C68.8089 22.6722 69.6774 23.5405 69.6774 24.6072C69.6774 25.6739 68.8089 26.5422 67.742 26.5422Z" fill="#FF3131"/>
<path d="M74.8389 45.8931H60.6455V48.4732H74.8389V45.8931Z" fill="#FF3131"/>
<path d="M70.9678 30.4121H68.3872V43.3127H70.9678V30.4121Z" fill="#FF3131"/>
<path d="M67.0971 30.4121H64.5165V43.3127H67.0971V30.4121Z" fill="#FF3131"/>
<path d="M50.9677 20.0918C48.4774 20.0918 46.4517 22.1171 46.4517 24.6069C46.4517 27.0968 48.4774 29.122 50.9677 29.122C53.4581 29.122 55.4838 27.0968 55.4838 24.6069C55.4838 22.1171 53.4581 20.0918 50.9677 20.0918ZM50.9677 26.5422C49.9005 26.5422 49.0323 25.6739 49.0323 24.6072C49.0323 23.5402 49.9008 22.6722 50.9677 22.6722C52.0349 22.6722 52.9031 23.5405 52.9031 24.6072C52.9031 25.6739 52.0349 26.5422 50.9677 26.5422Z" fill="#FF3131"/>
<path d="M58.0647 45.8931H43.8713V48.4732H58.0647V45.8931Z" fill="#FF3131"/>
<path d="M54.1938 30.4121H51.6132V43.3127H54.1938V30.4121Z" fill="#FF3131"/>
<path d="M50.3228 30.4121H47.7422V43.3127H50.3228V30.4121Z" fill="#FF3131"/>
<path d="M34.1937 20.0918C31.7033 20.0918 29.6776 22.1171 29.6776 24.6069C29.6776 27.0968 31.7033 29.122 34.1937 29.122C36.684 29.122 38.7097 27.0968 38.7097 24.6069C38.7097 22.1171 36.684 20.0918 34.1937 20.0918ZM34.1937 26.5422C33.1265 26.5422 32.2583 25.6739 32.2583 24.6072C32.2583 23.5402 33.1267 22.6722 34.1937 22.6722C35.2606 22.6722 36.1291 23.5405 36.1291 24.6072C36.1291 25.6739 35.2606 26.5422 34.1937 26.5422Z" fill="#FF3131"/>
<path d="M41.2905 45.8931H27.097V48.4732H41.2905V45.8931Z" fill="#FF3131"/>
<path d="M37.4195 30.4121H34.8389V43.3127H37.4195V30.4121Z" fill="#FF3131"/>
<path d="M33.5488 30.4121H30.9681V43.3127H33.5488V30.4121Z" fill="#FF3131"/>
<path d="M5.1615 5.90137V16.2218H19.3549V5.90137H5.1615ZM16.7743 13.6417H7.74214V8.48147H16.7743V13.6417Z" fill="#FF3131"/>
<path d="M5.1615 29.1222H19.3549V18.8018H5.1615V29.1222ZM7.74214 21.3819H16.7743V26.5421H7.74214V21.3819Z" fill="#FF3131"/>
<path d="M5.1615 42.0226H19.3549V31.7021H5.1615V42.0226ZM7.74214 34.2823H16.7743V39.4425H7.74214V34.2823Z" fill="#FF3131"/>
<path d="M12.2582 44.603C8.34471 44.603 5.1615 47.7869 5.1615 51.6983C5.1615 55.6096 8.34471 58.7935 12.2582 58.7935C16.1717 58.7935 19.3549 55.6096 19.3549 51.6983C19.3549 47.7869 16.1717 44.603 12.2582 44.603ZM12.2582 56.2134C9.76785 56.2134 7.74214 54.1881 7.74214 51.6983C7.74214 49.2084 9.76785 47.1831 12.2582 47.1831C14.7486 47.1831 16.7743 49.2084 16.7743 51.6983C16.7743 54.1881 14.7486 56.2134 12.2582 56.2134Z" fill="#FF3131"/>
<path d="M74.8391 5.90137H27.097V13.6417H74.8388V5.90137H74.8391ZM72.2584 11.0616H29.6777V8.48147H72.2584V11.0616Z" fill="#FF3131"/>
</svg>
