<?xml version="1.0"?>
<svg xmlns="http://www.w3.org/2000/svg" xmlns:xlink="http://www.w3.org/1999/xlink" xmlns:svgjs="http://svgjs.com/svgjs" version="1.1" width="512" height="512" x="0" y="0" viewBox="0 0 512 512" style="enable-background:new 0 0 512 512" xml:space="preserve" class=""><g><link type="text/css" rel="stylesheet" id="dark-mode-general-link"/><link type="text/css" rel="stylesheet" id="dark-mode-custom-link"/><style lang="en" type="text/css" id="dark-mode-custom-style"/><g xmlns="http://www.w3.org/2000/svg"><path d="m496.939 452.734h-7.662v-393.668c7.195-1.129 12.723-7.353 12.723-14.86v-22.118c0-8.304-6.756-15.061-15.061-15.061h-363.44c-4.142 0-7.5 3.358-7.5 7.5s3.358 7.5 7.5 7.5l363.501.061-.061 22.179-461.939-.061.061-22.179h68.438c4.142 0 7.5-3.358 7.5-7.5s-3.358-7.5-7.5-7.5h-68.438c-8.305 0-15.061 6.757-15.061 15.061v22.118c0 7.507 5.528 13.731 12.723 14.86v393.668h-7.662c-8.305 0-15.061 6.756-15.061 15.06v27.673c0 5.241 4.264 9.505 9.505 9.505h492.99c5.241 0 9.505-4.264 9.505-9.505v-27.673c0-8.304-6.756-15.06-15.061-15.06zm-459.216-393.468h436.554v393.467h-23.031v-279.99-58.421c0-12.407-10.093-22.5-22.5-22.5h-345.493c-12.407 0-22.5 10.093-22.5 22.5v58.421 108.045c0 4.142 3.358 7.5 7.5 7.5s7.5-3.358 7.5-7.5v-100.545h360.493v272.49h-45.16v-92.7c0-12.407-10.093-22.5-22.5-22.5h-41.296v-92.742c0-12.407-10.093-22.5-22.5-22.5h-97.58c-12.407 0-22.5 10.093-22.5 22.5v92.699h-41.296c-12.407 0-22.5 10.093-22.5 22.5v92.743h-45.16v-141.945c0-4.142-3.358-7.5-7.5-7.5s-7.5 3.358-7.5 7.5v141.945h-23.031zm38.03 84.267h107.889c4.142 0 7.5-3.358 7.5-7.5s-3.358-7.5-7.5-7.5h-107.889v-14.21c0-4.135 3.364-7.5 7.5-7.5h345.493c4.135 0 7.5 3.365 7.5 7.5v14.21h-64.972c-4.142 0-7.5 3.358-7.5 7.5s3.358 7.5 7.5 7.5h64.972v21.71h-360.493zm193.415 93.759v12.648c0 4.136-3.364 7.5-7.5 7.5h-11.336c-4.136 0-7.5-3.364-7.5-7.5v-12.648zm-18.836 35.148h11.336c12.407 0 22.5-10.093 22.5-22.5v-12.648h20.622c4.135 0 7.5 3.365 7.5 7.5v92.699h-112.58v-92.699c0-4.135 3.364-7.5 7.5-7.5h20.622v12.648c0 12.407 10.093 22.5 22.5 22.5zm118.254 80.094c4.136 0 7.5 3.364 7.5 7.5v92.7h-112.58v-100.2h29.525v12.649c0 12.407 10.093 22.5 22.5 22.5h11.337c12.407 0 22.5-10.093 22.5-22.5v-12.649zm-34.218 12.649c0 4.136-3.364 7.5-7.5 7.5h-11.337c-4.136 0-7.5-3.364-7.5-7.5v-12.649h26.337zm-142.158-12.692h18.73v12.692c0 4.136-3.364 7.5-7.5 7.5h-11.336c-4.136 0-7.5-3.364-7.5-7.5v-12.692zm-.105 35.192h11.336c12.407 0 22.5-10.093 22.5-22.5v-12.692h22.553v100.2h-112.58v-92.7c0-4.136 3.365-7.5 7.5-7.5h26.191v12.692c0 12.407 10.093 22.5 22.5 22.5zm304.895 102.29h-481.988l.048-22.239 481.94.06z" fill="#ff3131" data-original="#000000" style="" class=""/><path d="m333.699 128.533h-114.427c-4.142 0-7.5 3.358-7.5 7.5s3.358 7.5 7.5 7.5h114.428c4.142 0 7.5-3.358 7.5-7.5s-3.359-7.5-7.501-7.5z" fill="#ff3131" data-original="#000000" style="" class=""/></g></g></svg>
