<?xml version="1.0"?>
<svg width="24" height="25" viewBox="0 0 24 25" fill="none" xmlns="http://www.w3.org/2000/svg">
<path fill-rule="evenodd" clip-rule="evenodd" d="M16.1182 20.7403V6.03314C16.1182 5.7387 16.3473 5.5 16.63 5.5C16.9127 5.5 17.1418 5.7387 17.1418 6.03314V20.7403L21.3863 16.319C21.5861 16.1108 21.9102 16.1108 22.1101 16.319C22.31 16.5272 22.31 16.8648 22.1101 17.073L16.9919 22.4045C16.792 22.6127 16.468 22.6127 16.2681 22.4045L11.1499 17.073C10.95 16.8648 10.95 16.5272 11.1499 16.319C11.3498 16.1108 11.6739 16.1108 11.8737 16.319L16.1182 20.7403Z" fill="#6D6E71" stroke="#6D6E71" stroke-width="0.4"/>
<path fill-rule="evenodd" clip-rule="evenodd" d="M8.14159 4.32021L8.14158 19.0274C8.14158 19.3218 7.91244 19.5605 7.62977 19.5605C7.3471 19.5605 7.11795 19.3218 7.11795 19.0274L7.11795 4.32021L2.8735 8.74151C2.67362 8.94972 2.34955 8.94972 2.14968 8.74151C1.9498 8.53331 1.9498 8.19574 2.14968 7.98753L7.26786 2.65609C7.46773 2.44789 7.7918 2.44789 7.99168 2.6561L13.1099 7.98753C13.3097 8.19574 13.3097 8.53331 13.1099 8.74151C12.91 8.94972 12.5859 8.94972 12.386 8.74151L8.14159 4.32021Z" fill="#ED1D24" stroke="#ED1D24" stroke-width="0.4"/>
</svg>