<?xml version="1.0"?>
<svg width="24" height="24" viewBox="0 0 24 24" fill="none" xmlns="http://www.w3.org/2000/svg">
<path fill-rule="evenodd" clip-rule="evenodd" d="M22.8184 21.9373L17.4468 16.5678C18.8966 14.9157 19.7777 12.7519 19.7777 10.3857C19.7777 5.21029 15.5653 1 10.3888 1C5.21133 0.998962 1 5.21029 1 10.3847C1 15.5591 5.21237 19.7704 10.3888 19.7704C12.7519 19.7704 14.9136 18.8924 16.5657 17.4468L21.9383 22.8174C22.0598 22.9398 22.2196 23 22.3784 23C22.5382 23 22.697 22.9388 22.8184 22.8174C23.0623 22.5745 23.0623 22.1802 22.8184 21.9373ZM10.3889 18.5251C5.89836 18.5251 2.24536 14.8731 2.24536 10.3847C2.24536 5.89626 5.89836 2.24429 10.3889 2.24429C14.8794 2.24429 18.5324 5.89626 18.5324 10.3847C18.5324 14.8731 14.8794 18.5251 10.3889 18.5251Z" fill="#6D6E71"/>
</svg>
