<?xml version="1.0"?>
<svg width="33" height="32" viewBox="0 0 33 32" fill="none" xmlns="http://www.w3.org/2000/svg">
<g clip-path="url(#clip0)">
<path d="M16.585 27.3452C10.3294 27.3452 5.24023 22.256 5.24023 16.0004C5.24023 9.74481 10.3294 4.65564 16.585 4.65564C22.8406 4.65564 27.9298 9.74481 27.9298 16.0004C27.9298 22.256 22.8406 27.3452 16.585 27.3452ZM16.585 6.71832C11.467 6.71832 7.30292 10.8824 7.30292 16.0004C7.30292 21.1184 11.467 25.2825 16.585 25.2825C21.703 25.2825 25.8671 21.1184 25.8671 16.0004C25.8671 10.8824 21.703 6.71832 16.585 6.71832Z" fill="#F3CCCC"/>
<path d="M29.9927 15.9998C29.9927 15.461 29.9602 14.9199 29.8962 14.3857L32.585 13.5121L30.992 8.60757L28.3002 9.4816C27.7737 8.53584 27.1378 7.66126 26.4041 6.87128L28.0676 4.58286L23.8958 1.55121L22.2323 3.84029C21.252 3.38397 20.2233 3.04921 19.1635 2.84195V0.0140381H14.0068V2.84195C12.9471 3.04877 11.9184 3.38397 10.9381 3.84029L9.27508 1.55176L5.10274 4.58286L6.76631 6.87139C6.03254 7.66093 5.39668 8.53595 4.87018 9.48171L2.17889 8.60768L0.585511 13.5122L3.2747 14.3858C3.21024 14.92 3.17778 15.461 3.17778 15.9999C3.17778 16.5388 3.21024 17.0798 3.27426 17.614L0.584961 18.4874L2.17834 23.392L4.86963 22.518C5.39613 23.4637 6.03199 24.3383 6.76576 25.1283L5.10274 27.4168L9.27453 30.4485L10.9376 28.16C11.9178 28.6163 12.9466 28.951 14.0063 29.1583V31.9858H19.163V29.1579C20.2227 28.951 21.2514 28.6158 22.2317 28.1595L23.8947 30.448L28.0665 27.4164L26.403 25.1279C27.1367 24.3383 27.7726 23.4633 28.2991 22.5175L30.9909 23.3916L32.5839 18.487L29.8951 17.6134C29.9601 17.0796 29.9927 16.5387 29.9927 15.9998ZM31.286 19.149L30.3299 22.0925L27.7923 21.2674L27.5912 21.6573C27.0079 22.7897 26.2597 23.8195 25.3677 24.7188L25.0583 25.0303L26.6269 27.1894L24.1239 29.0082L22.5553 26.8486L22.1634 27.0472C21.0289 27.6217 19.8186 28.0151 18.5661 28.2173L18.1324 28.2864V30.9544H15.0384V28.2864L14.6047 28.2162C13.3522 28.0141 12.1419 27.6211 11.0074 27.0461L10.6154 26.8475L9.04681 29.0071L6.54376 27.1883L8.11239 25.0292L7.80293 24.7177C6.91086 23.819 6.16257 22.7892 5.57941 21.6562L5.37831 21.2663L2.84071 22.0914L1.88462 19.1479L4.41969 18.3244L4.35313 17.8912C4.25775 17.2699 4.20924 16.6334 4.20924 15.9997C4.20924 15.3659 4.25775 14.7296 4.35313 14.1066L4.41969 13.6734L1.88462 12.8499L2.84071 9.90646L5.37831 10.7315L5.57941 10.3417C6.16246 9.20943 6.91075 8.17963 7.80282 7.2803L8.11228 6.96886L6.54354 4.80981L9.04659 2.99102L10.6152 5.15062L11.0072 4.95205C12.1417 4.37758 13.3519 3.98418 14.6045 3.78199L15.0382 3.71345V1.04538H18.1322V3.71345L18.5659 3.78353C19.8184 3.98572 21.0286 4.37857 22.1632 4.95359L22.555 5.15216L24.1237 2.99256L26.6267 4.81135L25.0581 6.97051L25.3674 7.28195C26.2595 8.18073 27.0078 9.21053 27.591 10.3435L27.7921 10.7334L30.3296 9.90833L31.2857 12.8517L28.7502 13.6753L28.8168 14.1085C28.9127 14.7298 28.9612 15.3662 28.9612 16C28.9612 16.6338 28.9127 17.2701 28.8173 17.8931L28.7508 18.3263L31.286 19.149Z" fill="white"/>
<path d="M20.3443 9.84799L18.854 10.8288L19.4212 11.69L21.8212 10.1105L21.4731 7.18762L20.449 7.30929L20.6296 8.82534C17.4572 7.03746 13.3875 7.52942 10.7513 10.1656C7.84301 13.074 7.53355 17.731 10.0314 20.9988L10.8508 20.3723C8.66533 17.5135 8.93661 13.4392 11.4809 10.8947C13.8478 8.52787 17.5395 8.1314 20.3443 9.84799Z" fill="white"/>
<path d="M22.3195 11.6274C24.5049 14.4862 24.2336 18.5605 21.6893 21.1049C19.3214 23.4724 15.6297 23.8689 12.825 22.1522L14.3158 21.1709L13.7486 20.3098L11.3486 21.8893L11.6967 24.8122L12.7208 24.6905L12.5403 23.177C13.7959 23.8844 15.1903 24.2398 16.5831 24.2398C18.7093 24.2398 20.8261 23.4266 22.4179 21.8342C25.3263 18.9258 25.6357 14.2688 23.1378 11.001L22.3195 11.6274Z" fill="white"/>
</g>
<defs>
<clipPath id="clip0">
<rect width="32" height="32" fill="white" transform="translate(0.584961)"/>
</clipPath>
</defs>
</svg>