<?xml version="1.0"?>
<svg xmlns="http://www.w3.org/2000/svg" xmlns:xlink="http://www.w3.org/1999/xlink" xmlns:svgjs="http://svgjs.com/svgjs" version="1.1" width="512" height="512" x="0" y="0" viewBox="0 0 510 510" style="enable-background:new 0 0 512 512" xml:space="preserve" class=""><g><link type="text/css" rel="stylesheet" id="dark-mode-general-link"/><link type="text/css" rel="stylesheet" id="dark-mode-custom-link"/><style lang="en" type="text/css" id="dark-mode-custom-style"/><g xmlns="http://www.w3.org/2000/svg"><path d="m510 240v-240h-90v45h-30c-18.536 0-36.984-2.539-54.832-7.547 0 0-137.663-35.847-138.348-36.007-14.722-3.445-30.553-.336-43.434 8.527l-124.63 85.74c-1.563 1.075-6.36 4.053-6.36 4.053-14.024 8.742-22.396 23.832-22.396 40.363 0 12.866 5.046 24.91 14.208 33.912 8.868 8.713 20.97 13.669 33.314 13.669.271 0 .541-.003.812-.007 4.045-.071 8.131-.729 12.494-2.012l104.343-30.693c1.757 21.881 17.27 40.158 38.954 45.271l26.346 6.732c-15.066 12.933-24.638 32.093-24.638 53.458 0 8.863 1.661 17.341 4.661 25.161-8.566-1.291-17.338-.549-25.508 2.174l-39.73 12.976-2.309.77c-22.175 7.392-34.716 11.566-52.947 12.943v-44.483h-90v240h90v-45h30c18.536 0 36.984 2.539 54.832 7.547l136.279 35.48c.69.19 1.384.367 2.068.527 3.933.92 7.944 1.372 11.958 1.372 11.01 0 22.035-3.404 31.476-9.899l124.63-85.74c1.563-1.075 6.36-4.053 6.36-4.053 14.025-8.742 22.397-23.832 22.397-40.363 0-12.866-5.046-24.91-14.208-33.912-9.063-8.904-21.53-13.899-34.126-13.661-4.045.071-8.131.728-12.494 2.012l-104.343 30.693c-1.339-16.672-10.665-31.247-24.622-39.506 16.161-12.921 26.543-32.785 26.543-55.038 0-15.3-4.918-29.464-13.232-41.03l31.227-10.199 2.309-.77c22.175-7.392 34.717-11.566 52.947-12.943v44.483zm-60-210h30v180h-30zm-163.147 191.407c17.202 4.657 29.897 20.396 29.897 39.051 0 22.309-18.149 40.458-40.458 40.458-2.78 0-5.495-.282-8.119-.819l-3.67-.938c-16.576-5.059-28.67-20.492-28.67-38.701 0-22.309 18.149-40.458 40.459-40.458 3.288 0 6.481.404 9.543 1.148zm-226.853 258.593h-30v-180h30zm275.271-90.915 122.366-35.994c1.722-.506 3.255-.775 4.557-.798.105-.001.207-.003.311-.003 4.585 0 8.929 1.793 12.263 5.068 3.375 3.316 5.233 7.76 5.233 12.513 0 6.106-3.091 11.678-8.269 14.906l-1.217.756c-2.029 1.259-4.128 2.561-6.275 4.038l-124.63 85.74c-5.94 4.086-13.083 5.556-19.607 4.029-.329-.077-.656-.161-.983-.251l-136.22-35.465c-20.443-5.722-41.571-8.624-62.8-8.624h-30v-90.462c23.362-1.52 39.034-6.738 62.435-14.538l41.953-13.717c4.15-1.384 8.6-1.654 12.89-.781l91.637 23.411c9.472 2.199 16.086 10.526 16.086 20.25 0 6.446-2.914 12.419-7.995 16.386-5.082 3.967-11.582 5.346-17.836 3.782l-75.531-18.883-7.275 29.104 75.531 18.883c4.127 1.032 8.296 1.539 12.432 1.539 11.172 0 22.082-3.706 31.143-10.779 3.775-2.95 7.055-6.358 9.801-10.11zm22.294-209.085-41.953 13.717c-4.152 1.382-8.603 1.654-12.89.781l-8.275-2.114c-.416-.111-.833-.217-1.252-.32l-81.789-20.898-.32-.078c-9.472-2.199-16.086-10.526-16.086-20.25 0-6.446 2.914-12.419 7.995-16.386 5.081-3.968 11.58-5.347 17.836-3.782l75.531 18.883 7.275-29.104-75.531-18.883c-15.275-3.818-31.16-.453-43.574 9.24-3.777 2.95-7.058 6.358-9.803 10.11l-122.366 35.993c-1.722.506-3.255.775-4.557.798-4.716.083-9.163-1.716-12.573-5.065-3.375-3.316-5.233-7.76-5.233-12.513 0-6.106 3.091-11.678 8.269-14.906 0 0 5.345-3.317 7.492-4.794l124.63-85.74c5.939-4.086 13.084-5.556 19.607-4.029.329.076 137.202 35.716 137.202 35.716 20.443 5.722 41.572 8.624 62.8 8.624h30v90.462c-23.362 1.52-39.034 6.738-62.435 14.538z" fill="#ff3131" data-original="#000000" style="" class=""/></g></g></svg>
