<?xml version="1.0"?>
<svg xmlns="http://www.w3.org/2000/svg" xmlns:xlink="http://www.w3.org/1999/xlink" xmlns:svgjs="http://svgjs.com/svgjs" version="1.1" width="512" height="512" x="0" y="0" viewBox="0 0 507.339 507.339" style="enable-background:new 0 0 512 512" xml:space="preserve" class=""><g><link type="text/css" rel="stylesheet" id="dark-mode-general-link"/><link type="text/css" rel="stylesheet" id="dark-mode-custom-link"/><style lang="en" type="text/css" id="dark-mode-custom-style"/>
<g xmlns="http://www.w3.org/2000/svg">
	<g>
		<g>
			<path d="M396.075,163.653L396.075,163.653l27.648-16.128C363.903,44.761,234.966,5.503,128.027,57.494V18.15h-32v96h96v-32     h-40.88C241.665,43.753,346.612,78.676,396.075,163.653z" fill="#ff3131" data-original="#000000" style=""/>
			<path d="M104.027,412.965C29.84,352.714,10.314,247.543,57.931,164.678l-27.744-16c-54.311,94.575-33.761,214.399,48.96,285.472     h-39.12v32h96v-96h-32V412.965z" fill="#ff3131" data-original="#000000" style=""/>
			<path d="M439.451,219.238l-67.872,67.888l22.624,22.624l27.2-27.2c-10.669,99.13-94.202,174.364-193.904,174.64v32     c118.79-0.312,217.334-91.989,226.208-210.448l31.008,31.008l22.624-22.624L439.451,219.238z" fill="#ff3131" data-original="#000000" style=""/>
		</g>
	</g>
</g>
<g xmlns="http://www.w3.org/2000/svg">
</g>
<g xmlns="http://www.w3.org/2000/svg">
</g>
<g xmlns="http://www.w3.org/2000/svg">
</g>
<g xmlns="http://www.w3.org/2000/svg">
</g>
<g xmlns="http://www.w3.org/2000/svg">
</g>
<g xmlns="http://www.w3.org/2000/svg">
</g>
<g xmlns="http://www.w3.org/2000/svg">
</g>
<g xmlns="http://www.w3.org/2000/svg">
</g>
<g xmlns="http://www.w3.org/2000/svg">
</g>
<g xmlns="http://www.w3.org/2000/svg">
</g>
<g xmlns="http://www.w3.org/2000/svg">
</g>
<g xmlns="http://www.w3.org/2000/svg">
</g>
<g xmlns="http://www.w3.org/2000/svg">
</g>
<g xmlns="http://www.w3.org/2000/svg">
</g>
<g xmlns="http://www.w3.org/2000/svg">
</g>
</g></svg>
