<svg width="22" height="22" viewBox="0 0 22 22" fill="none" xmlns="http://www.w3.org/2000/svg">
<path fill-rule="evenodd" clip-rule="evenodd" d="M21.3256 1.82783L20.1521 0.654382C19.2796 -0.218127 17.7587 -0.218127 16.8862 0.654382L15.3685 2.17207C15.3674 2.17315 15.3653 2.17532 15.3642 2.1764C15.3631 2.17748 15.3609 2.17965 15.3598 2.18073L6.32407 11.2154C6.22447 11.315 6.16061 11.4438 6.14112 11.5824L5.5544 15.6895C5.52517 15.8919 5.59337 16.0954 5.73734 16.2405C5.85967 16.365 6.02529 16.4321 6.19633 16.4321C6.22664 16.4321 6.25803 16.4299 6.28834 16.4256L10.3954 15.8389C10.534 15.8194 10.6639 15.7544 10.7624 15.6559L19.7971 6.62013C19.7982 6.61905 19.8003 6.61689 19.8014 6.6158C19.8025 6.61472 19.8047 6.61256 19.8057 6.61147L21.3234 5.09379C21.7597 4.65753 22 4.07838 22 3.46135C22 2.84431 21.7608 2.26409 21.3256 1.82783ZM9.99813 14.5831L6.96275 15.0172L7.39684 11.9808L15.8242 3.55445L18.4255 6.15574L9.99813 14.5831ZM20.4065 4.17473L19.3435 5.23776L16.7422 2.63647L17.8052 1.57344C18.1874 1.19023 18.852 1.19023 19.2331 1.57344L20.4065 2.74689C20.5981 2.93741 20.7021 3.1918 20.7021 3.46135C20.7021 3.7309 20.5981 3.9842 20.4065 4.17473ZM20.7843 11.4525V16.8651C20.7843 19.6114 18.5511 21.8447 15.8048 21.8447H4.97958C2.23323 21.8447 0 19.6114 0 16.8651V6.03991C0 3.29356 2.23323 1.06033 4.97958 1.06033H10.3922C10.7516 1.06033 11.0417 1.35152 11.0417 1.70984C11.0417 2.06815 10.7505 2.35935 10.3922 2.35935H4.97958C2.94986 2.35935 1.29902 4.01019 1.29902 6.03991V16.8651C1.29902 18.8948 2.94986 20.5456 4.97958 20.5456H15.8048C17.8345 20.5456 19.4853 18.8948 19.4853 16.8651V11.4525C19.4853 11.0931 19.7765 10.803 20.1348 10.803C20.4931 10.803 20.7843 11.0931 20.7843 11.4525Z" fill="#fff"/>
</svg>
