<?xml version="1.0"?>
<svg width="40" height="40" viewBox="0 0 40 40" fill="none" xmlns="http://www.w3.org/2000/svg">
<path d="M18.0587 39.4467L16.7812 39.2635L18.0367 30.4757L16.8832 28.7454L17.9567 28.0293L19.3838 30.1699L18.0587 39.4467Z" fill="white"/>
<path d="M21.9424 39.4467L20.6172 30.1699L22.0443 28.0293L23.1178 28.7454L21.9643 30.4757L23.2198 39.2635L21.9424 39.4467Z" fill="white"/>
<path d="M27.742 11.6132C26.1407 11.6132 24.6575 10.7732 23.8336 9.40034L23.2258 8.38744C21.1607 10.4526 18.3587 11.6132 15.4381 11.6132H12.2581H10.9678V9.67776C10.9678 4.68938 15.0116 0.645508 20 0.645508H20.4645C23.2445 0.645508 25.6878 2.48873 26.4516 5.16164C27.8768 5.16164 29.0323 6.31712 29.0323 7.74228V11.6132H27.742Z" fill="#ED1D24"/>
<path d="M36.1135 31.4669C35.6806 28.8675 33.8581 26.7346 31.3574 25.9011L25.8064 24.0507V23.2256H24.5161V24.4359L23.5529 28.2882L20.9471 25.1611H19.0523L16.4464 28.2882L15.4839 24.4359V23.2256H14.1935V24.0507L8.64258 25.9011C6.14258 26.7346 4.32 28.8675 3.88645 31.4669L2.46387 39.9998H37.5355L36.1135 31.4669ZM31.5516 38.7095L30.9645 32.8385L29.6806 32.9669L30.2548 38.7088H9.74516L10.3193 32.9669L9.03548 32.8385L8.44838 38.7095H3.98774L5.15935 31.6798C5.51354 29.5527 7.00516 27.8082 9.05096 27.1256L14.3819 25.3482L15.8116 31.0662L19.6568 26.4514H20.3426L24.1884 31.0662L25.6181 25.3482L30.949 27.1256C32.9948 27.8075 34.4858 29.5527 34.8406 31.6798L36.0122 38.7095H31.5516Z" fill="white"/>
<path d="M11.898 17.3832C12.2271 18.5155 12.8348 19.5535 13.6916 20.4103L16.2077 22.9265C16.8167 23.5355 17.6264 23.871 18.4884 23.871H21.5122C22.3735 23.871 23.1838 23.5355 23.7929 22.9265L26.309 20.4103C27.1658 19.5535 27.7735 18.5148 28.1026 17.3832C29.7096 17.2013 30.9677 15.849 30.9677 14.1935C30.9677 13.1348 30.4477 12.2013 29.6574 11.6129H29.6774V7.74194C29.6774 6.1271 28.4838 4.78516 26.9329 4.55226C25.9619 1.85032 23.3638 0 20.4645 0H20C14.6638 0 10.3225 4.34129 10.3225 9.67742V11.6129H10.3425C9.55223 12.2013 9.03223 13.1348 9.03223 14.1935C9.03223 15.849 10.2903 17.2013 11.898 17.3832ZM25.3961 19.4981L22.88 22.0142C22.52 22.3742 22.0213 22.5806 21.5116 22.5806H18.4877C17.978 22.5806 17.48 22.3742 17.1193 22.0142L14.6032 19.4981C13.5064 18.4013 12.9025 16.9432 12.9025 15.3923V12.2581H15.4374C18.2767 12.2581 20.9613 11.2497 23.0826 9.40258L23.28 9.73161C24.1032 11.1039 25.5277 12.0161 27.0967 12.2148V15.3916C27.0967 16.9432 26.4929 18.4013 25.3961 19.4981ZM28.3567 16.0194C28.3748 15.8123 28.3871 15.6032 28.3871 15.3923V12.3768C29.1361 12.6439 29.6774 13.3535 29.6774 14.1935C29.6774 15.0445 29.1213 15.7613 28.3567 16.0194ZM11.6129 9.67742C11.6129 5.0529 15.3755 1.29032 20 1.29032H20.4645C22.9432 1.29032 25.1503 2.95484 25.8316 5.33871L25.9651 5.80645H26.4516C27.5187 5.80645 28.3871 6.67484 28.3871 7.74194V11.0329C28.1787 10.9903 27.9626 10.9677 27.7419 10.9677C26.3755 10.9677 25.0896 10.24 24.3864 9.06774L23.3535 7.34645L22.769 7.93097C20.8109 9.88903 18.2077 10.9677 15.438 10.9677H12.258C12.0374 10.9677 11.8213 10.9903 11.6129 11.0329V9.67742ZM11.6129 12.3768V15.3923C11.6129 15.6032 11.6251 15.8123 11.6432 16.02C10.8787 15.7613 10.3225 15.0445 10.3225 14.1935C10.3225 13.3535 10.8638 12.6439 11.6129 12.3768Z" fill="white"/>
</svg>
