<?xml version="1.0"?>
<svg xmlns="http://www.w3.org/2000/svg" xmlns:xlink="http://www.w3.org/1999/xlink" xmlns:svgjs="http://svgjs.com/svgjs" version="1.1" width="512" height="512" x="0" y="0" viewBox="0 0 496 496" style="enable-background:new 0 0 512 512" xml:space="preserve" class=""><g><link type="text/css" rel="stylesheet" id="dark-mode-general-link"/><link type="text/css" rel="stylesheet" id="dark-mode-custom-link"/><style lang="en" type="text/css" id="dark-mode-custom-style"/><path xmlns="http://www.w3.org/2000/svg" d="m262.65625 379.558594-16-24c-1.488281-2.222656-3.984375-3.558594-6.65625-3.558594h-11.71875l-13.625-20.441406c-1.488281-2.222656-3.984375-3.558594-6.65625-3.558594h-11.71875l-13.625-20.441406c-1.488281-2.222656-3.984375-3.558594-6.65625-3.558594h-16c-2.671875 0-5.167969 1.335938-6.65625 3.558594l-1.34375 2.015625v-55.957031c59.742188-11.371094 104-64.089844 104-125.617188 0-70.574219-57.425781-128-128-128s-128 57.425781-128 128c0 61.527344 44.257812 114.246094 104 125.617188v98.382812c0 .855469.144531 1.710938.414062 2.527344l6.066407 18.199218-18.914063 12.609376c-2.695312 1.800781-4.039062 5.046874-3.40625 8.222656l8 40c.167969.839844.472656 1.65625.894532 2.402344l32 56c1.425781 2.503906 4.082031 4.039062 6.945312 4.039062h88c2.863281 0 5.519531-1.535156 6.945312-4.03125l32-56c.6875-1.207031 1.054688-2.578125 1.054688-3.96875v-48c0-1.574219-.472656-3.128906-1.34375-4.441406zm-246.65625-251.558594c0-61.761719 50.238281-112 112-112s112 50.238281 112 112c0 52.902344-37.375 98.425781-88.265625 109.425781-1.300781-12.019531-11.382813-21.425781-23.734375-21.425781s-22.433594 9.40625-23.734375 21.425781c-50.890625-11-88.265625-56.523437-88.265625-109.425781zm232 301.871094-28.640625 50.128906h-78.71875l-29.046875-50.839844-6.699219-33.472656 10.832031-7.214844 4.6875 14.0625 15.171876-5.0625-15.585938-46.769531v-110.703125c0-4.40625 3.585938-8 8-8s8 3.59375 8 8v96c0 3.519531 2.304688 6.640625 5.679688 7.65625s7.023437-.289062 8.976562-3.214844l13.625-20.441406h7.4375l13.625 20.441406c1.488281 2.222656 3.984375 3.558594 6.65625 3.558594h11.71875l13.625 20.441406c1.488281 2.222656 3.984375 3.558594 6.65625 3.558594h11.71875l12.28125 18.425781zm0 0" fill="#ff3131" data-original="#000000" style=""/><path xmlns="http://www.w3.org/2000/svg" d="m112 112h32c4.425781 0 8-3.585938 8-8v-64c0-4.414062-3.574219-8-8-8h-32c-4.425781 0-8 3.585938-8 8v64c0 4.414062 3.574219 8 8 8zm8-64h16v48h-16zm0 0" fill="#ff3131" data-original="#000000" style=""/><path xmlns="http://www.w3.org/2000/svg" d="m106.175781 204.992188c-34.253906-9.6875-58.175781-41.34375-58.175781-76.992188 0-21.632812 8.550781-41.910156 23.742188-56.886719l8.539062 14.238281c-10.417969 11.671876-16.28125 26.878907-16.28125 42.648438 0 35.289062 28.710938 64 64 64s64-28.710938 64-64c0-15.769531-5.863281-30.976562-16.28125-42.648438l8.539062-14.238281c15.191407 14.976563 23.742188 35.253907 23.742188 56.886719 0 35.648438-23.921875 67.304688-58.175781 76.992188l4.359375 15.398437c41.105468-11.628906 69.816406-49.621094 69.816406-92.390625 0-29.648438-13.382812-57.167969-36.71875-75.511719-1.808594-1.425781-4.160156-2-6.394531-1.578125-2.261719.417969-4.230469 1.785156-5.414063 3.753906l-16.671875 27.785157c-1.960937 3.269531-1.34375 7.472656 1.480469 10.03125 9.992188 9.078125 15.71875 22.03125 15.71875 35.519531 0 26.472656-21.527344 48-48 48s-48-21.527344-48-48c0-13.488281 5.726562-26.441406 15.71875-35.519531 2.824219-2.570313 3.441406-6.769531 1.480469-10.03125l-16.671875-27.785157c-1.175782-1.96875-3.152344-3.335937-5.414063-3.753906-2.234375-.421875-4.585937.160156-6.394531 1.578125-23.335938 18.34375-36.71875 45.863281-36.71875 75.511719 0 42.769531 28.710938 80.761719 69.824219 92.382812zm0 0" fill="#ff3131" data-original="#000000" style=""/></g></svg>
