<?xml version="1.0"?>
<svg xmlns="http://www.w3.org/2000/svg" xmlns:xlink="http://www.w3.org/1999/xlink" xmlns:svgjs="http://svgjs.com/svgjs" version="1.1" width="512" height="512" x="0" y="0" viewBox="0 0 64 64" style="enable-background:new 0 0 512 512" xml:space="preserve" class=""><g><link type="text/css" rel="stylesheet" id="dark-mode-general-link"/><link type="text/css" rel="stylesheet" id="dark-mode-custom-link"/><style lang="en" type="text/css" id="dark-mode-custom-style"/><g xmlns="http://www.w3.org/2000/svg" id="Storage"><path d="M10,57H8a1,1,0,0,0,0,2h2a1,1,0,0,0,0-2Z" fill="#ff3131" data-original="#000000" style="" class=""/><path d="M10,54H8a1,1,0,0,0,0,2h2a1,1,0,0,0,0-2Z" fill="#ff3131" data-original="#000000" style="" class=""/><path d="M28,57H26a1,1,0,0,0,0,2h2a1,1,0,0,0,0-2Z" fill="#ff3131" data-original="#000000" style="" class=""/><path d="M28,54H26a1,1,0,0,0,0,2h2a1,1,0,0,0,0-2Z" fill="#ff3131" data-original="#000000" style="" class=""/><path d="M46,57H44a1,1,0,0,0,0,2h2a1,1,0,0,0,0-2Z" fill="#ff3131" data-original="#000000" style="" class=""/><path d="M46,54H44a1,1,0,0,0,0,2h2a1,1,0,0,0,0-2Z" fill="#ff3131" data-original="#000000" style="" class=""/><path d="M59,40H51V21a1,1,0,0,0-1-1H42V3a1,1,0,0,0-1-1H23a1,1,0,0,0-1,1V20H14a1,1,0,0,0-1,1V40H5a1,1,0,0,0-1,1V61a1,1,0,0,0,1,1H59a1,1,0,0,0,1-1V41A1,1,0,0,0,59,40ZM49,42h2v4H49Zm0-2H33V22h5v5a1,1,0,0,0,1,1h4a1,1,0,0,0,1-1V22h5ZM31,42h2v4H31ZM42,22v4H40V22ZM33,4V6H31V4ZM24,4h5V7a1,1,0,0,0,1,1h4a1,1,0,0,0,1-1V4h5V20H24Zm0,18v4H22V22Zm-9,0h5v5a1,1,0,0,0,1,1h4a1,1,0,0,0,1-1V22h5V40H15Zm0,20v4H13V42ZM6,42h5v5a1,1,0,0,0,1,1h4a1,1,0,0,0,1-1V42h5V60H6Zm18,0h5v5a1,1,0,0,0,1,1h4a1,1,0,0,0,1-1V42h5V60H24ZM58,60H42V42h5v5a1,1,0,0,0,1,1h4a1,1,0,0,0,1-1V42h5Z" fill="#ff3131" data-original="#000000" style="" class=""/><path d="M17,39h2a1,1,0,0,0,0-2H17a1,1,0,0,0,0,2Z" fill="#ff3131" data-original="#000000" style="" class=""/><path d="M17,36h2a1,1,0,0,0,0-2H17a1,1,0,0,0,0,2Z" fill="#ff3131" data-original="#000000" style="" class=""/><path d="M37,37H35a1,1,0,0,0,0,2h2a1,1,0,0,0,0-2Z" fill="#ff3131" data-original="#000000" style="" class=""/><path d="M37,34H35a1,1,0,0,0,0,2h2a1,1,0,0,0,0-2Z" fill="#ff3131" data-original="#000000" style="" class=""/><path d="M26,16h2a1,1,0,0,0,0-2H26a1,1,0,0,0,0,2Z" fill="#ff3131" data-original="#000000" style="" class=""/><path d="M26,19h2a1,1,0,0,0,0-2H26a1,1,0,0,0,0,2Z" fill="#ff3131" data-original="#000000" style="" class=""/></g></g></svg>
