<?xml version="1.0"?>
<svg xmlns="http://www.w3.org/2000/svg" xmlns:xlink="http://www.w3.org/1999/xlink" xmlns:svgjs="http://svgjs.com/svgjs" version="1.1" width="512" height="512" x="0" y="0" viewBox="0 0 64 64" style="enable-background:new 0 0 512 512" xml:space="preserve" class=""><g><link type="text/css" rel="stylesheet" id="dark-mode-general-link"/><link type="text/css" rel="stylesheet" id="dark-mode-custom-link"/><style lang="en" type="text/css" id="dark-mode-custom-style"/><g xmlns="http://www.w3.org/2000/svg" id="setting"><path d="M49,41H46.36c-1.53-1.25-9.07-7-18.36-7S11.18,39.75,9.64,41H5a3.009,3.009,0,0,0-3,3v6a.967.967,0,0,0,.17.55l4,6A1,1,0,0,0,7,57h4.09a5.993,5.993,0,0,0,11.82,0H42.09a5.993,5.993,0,0,0,11.82,0H61a1,1,0,0,0,1-1V54A13.012,13.012,0,0,0,49,41ZM4,46H7.13l-.67,1H4ZM17,60a4,4,0,1,1,4-4A4,4,0,0,1,17,60Zm10-5H22.91a5.993,5.993,0,0,0-11.82,0H7.54L4,49.7V49H7a1,1,0,0,0,.83-.45l2-3a.963.963,0,0,0,.05-1.02A.984.984,0,0,0,9,44H4a1,1,0,0,1,1-1H27Zm0-14H13.06A28.969,28.969,0,0,1,27,36.04Zm30.48,6H53.54l-.67-1h3.66A12.872,12.872,0,0,1,57.48,47ZM29,36.04c5.91.3,11.07,3.07,13.94,4.96H29ZM29,46h1.5a.5.5,0,0,1,0,1H29ZM48,60a4,4,0,1,1,4-4A4,4,0,0,1,48,60Zm12-5H53.91a5.993,5.993,0,0,0-11.82,0H29V49h1.5a2.5,2.5,0,0,0,0-5H29V43H49a10.816,10.816,0,0,1,4.55,1H51a.984.984,0,0,0-.88.53.963.963,0,0,0,.05,1.02l2,3A1,1,0,0,0,53,49h5.79A10.922,10.922,0,0,1,60,54Z" fill="#ff3131" data-original="#000000" style="" class=""/><path d="M48,53a3,3,0,1,0,3,3A3,3,0,0,0,48,53Zm0,4a1,1,0,1,1,1-1A1,1,0,0,1,48,57Z" fill="#ff3131" data-original="#000000" style="" class=""/><path d="M17,53a3,3,0,1,0,3,3A3,3,0,0,0,17,53Zm0,4a1,1,0,1,1,1-1A1,1,0,0,1,17,57Z" fill="#ff3131" data-original="#000000" style="" class=""/><path d="M21,15a4,4,0,1,0-4-4A4,4,0,0,0,21,15Zm0-6a2,2,0,1,1-2,2A2,2,0,0,1,21,9Z" fill="#ff3131" data-original="#000000" style="" class=""/><path d="M29.24,8.03l-.67-.17.36-.59a1,1,0,0,0-.15-1.22L25.95,3.22a1.014,1.014,0,0,0-1.22-.15l-.59.36-.17-.67A1,1,0,0,0,23,2H19a1,1,0,0,0-.97.76l-.17.67-.59-.36a1.014,1.014,0,0,0-1.22.15L13.22,6.05a1,1,0,0,0-.15,1.22l.36.59-.67.17A1,1,0,0,0,12,9v4a1,1,0,0,0,.76.97l.67.17-.36.59a1,1,0,0,0,.15,1.22l2.83,2.83a1.012,1.012,0,0,0,1.22.15l.59-.36.17.67A1,1,0,0,0,19,20h4a1,1,0,0,0,.97-.76l.17-.67.59.36a1.014,1.014,0,0,0,1.22-.15l2.83-2.83a1,1,0,0,0,.15-1.22l-.36-.59.67-.17A1,1,0,0,0,30,13V9A1,1,0,0,0,29.24,8.03ZM28,12.22l-1.22.3a1.007,1.007,0,0,0-.68.59.989.989,0,0,0,.07.9l.64,1.08-1.72,1.72-1.08-.65a1.019,1.019,0,0,0-.9-.06,1.007,1.007,0,0,0-.59.68L22.22,18H19.78l-.3-1.22a1.007,1.007,0,0,0-.59-.68,1.019,1.019,0,0,0-.9.06l-1.08.65-1.72-1.72.64-1.08a.989.989,0,0,0,.07-.9,1.007,1.007,0,0,0-.68-.59L14,12.22V9.78l1.22-.3a1.007,1.007,0,0,0,.68-.59.989.989,0,0,0-.07-.9l-.64-1.08,1.72-1.72,1.08.64a.989.989,0,0,0,.9.07,1.007,1.007,0,0,0,.59-.68L19.78,4h2.44l.3,1.22a1.007,1.007,0,0,0,.59.68.989.989,0,0,0,.9-.07l1.08-.64,1.72,1.72-.64,1.08a.989.989,0,0,0-.07.9,1.007,1.007,0,0,0,.68.59l1.22.3Z" fill="#ff3131" data-original="#000000" style="" class=""/><path d="M39,20a4,4,0,1,0,4-4A4,4,0,0,0,39,20Zm4-2a2,2,0,1,1-2,2A2,2,0,0,1,43,18Z" fill="#ff3131" data-original="#000000" style="" class=""/><path d="M51.24,17.03l-.67-.17.36-.59a1,1,0,0,0-.15-1.22l-2.83-2.83a1.014,1.014,0,0,0-1.22-.15l-.59.36-.17-.67A1,1,0,0,0,45,11H41a1,1,0,0,0-.97.76l-.17.67-.59-.36a1.014,1.014,0,0,0-1.22.15l-2.83,2.83a1,1,0,0,0-.15,1.22l.36.59-.67.17A1,1,0,0,0,34,18v4a1,1,0,0,0,.76.97l.67.17-.36.59a1,1,0,0,0,.15,1.22l2.83,2.83a1.012,1.012,0,0,0,1.22.15l.59-.36.17.67A1,1,0,0,0,41,29h4a1,1,0,0,0,.97-.76l.17-.67.59.36a1.012,1.012,0,0,0,1.22-.15l2.83-2.83a1,1,0,0,0,.15-1.22l-.36-.59.67-.17A1,1,0,0,0,52,22V18A1,1,0,0,0,51.24,17.03ZM50,21.22l-1.22.3a1.007,1.007,0,0,0-.68.59.989.989,0,0,0,.07.9l.64,1.08-1.72,1.72-1.08-.65a1.019,1.019,0,0,0-.9-.06,1.007,1.007,0,0,0-.59.68L44.22,27H41.78l-.3-1.22a1.007,1.007,0,0,0-.59-.68,1.019,1.019,0,0,0-.9.06l-1.08.65-1.72-1.72.64-1.08a.989.989,0,0,0,.07-.9,1.007,1.007,0,0,0-.68-.59L36,21.22V18.78l1.22-.3a1.007,1.007,0,0,0,.68-.59.989.989,0,0,0-.07-.9l-.64-1.08,1.72-1.72,1.08.64a.989.989,0,0,0,.9.07,1.007,1.007,0,0,0,.59-.68l.3-1.22h2.44l.3,1.22a1.007,1.007,0,0,0,.59.68.989.989,0,0,0,.9-.07l1.08-.64,1.72,1.72-.64,1.08a.989.989,0,0,0-.07.9,1.007,1.007,0,0,0,.68.59l1.22.3Z" fill="#ff3131" data-original="#000000" style="" class=""/><path d="M61,19H54v2h6V41h2V20A1,1,0,0,0,61,19Z" fill="#ff3131" data-original="#000000" style="" class=""/><path d="M4,12h6V10H3a1,1,0,0,0-1,1V39H4Z" fill="#ff3131" data-original="#000000" style="" class=""/><path d="M42,9h2V3a1,1,0,0,0-1-1H29V4H42Z" fill="#ff3131" data-original="#000000" style="" class=""/><path d="M20,22v6a1,1,0,0,0,1,1H35V27H22V22Z" fill="#ff3131" data-original="#000000" style="" class=""/></g></g></svg>
