<svg width="79" height="80" viewBox="0 0 79 80" fill="none" xmlns="http://www.w3.org/2000/svg">
<path d="M23.5162 61.8279L19.5079 57.8196C19.0187 57.3305 18.2256 57.3305 17.7365 57.8196L13.7283 61.8279C13.239 62.3174 13.239 63.1103 13.7283 63.5997C14.2175 64.0888 15.0106 64.0888 15.4997 63.5997L17.3697 61.7296V65.3861C17.3697 66.078 17.9304 66.6388 18.6223 66.6388C19.3142 66.6388 19.875 66.0782 19.875 65.3861V61.7296L21.745 63.5996C22.2543 64.1088 23.1146 64.0747 23.5829 63.5275C24.0028 63.0372 23.9723 62.2839 23.5162 61.8279Z" fill="#E3342F"/>
<path d="M47.5665 61.828L43.5582 57.8197C43.0688 57.3308 42.2759 57.3308 41.7865 57.8197L37.778 61.828C37.2888 62.3174 37.2888 63.1103 37.778 63.5996C38.2671 64.0885 39.0601 64.0888 39.5496 63.5996L41.4196 61.7297V65.3861C41.4196 66.078 41.9802 66.6388 42.6723 66.6388C43.3641 66.6388 43.9249 66.0781 43.9249 65.3861V61.7297L45.7948 63.5997C46.3043 64.1089 47.1646 64.075 47.6329 63.5277C48.0526 63.0374 48.0224 62.2841 47.5665 61.828Z" fill="#E3342F"/>
<path d="M41.3362 48.1001H19.9582C19.2665 48.1001 18.7056 48.6607 18.7056 49.3527V54.6972C18.7056 55.3891 19.2664 55.9499 19.9582 55.9499H41.336C42.0279 55.9499 42.5887 55.3893 42.5887 54.6972V49.3527C42.5887 48.6608 42.028 48.1001 41.3362 48.1001ZM40.0835 53.4446H21.2109V50.6054H40.0835V53.4446Z" fill="#E3342F"/>
<path d="M41.3362 38.7473C40.6443 38.7473 40.0835 39.3079 40.0835 39.9999V42.6721C40.0835 43.364 40.6441 43.9248 41.3362 43.9248C42.028 43.9248 42.5888 43.3641 42.5888 42.6721V39.9999C42.5887 39.3081 42.028 38.7473 41.3362 38.7473Z" fill="#E3342F"/>
<path d="M45.3444 38.7473C44.6526 38.7473 44.0918 39.3079 44.0918 39.9999V42.6721C44.0918 43.364 44.6524 43.9248 45.3444 43.9248C46.0363 43.9248 46.5971 43.3641 46.5971 42.6721V39.9999C46.5971 39.3081 46.0365 38.7473 45.3444 38.7473Z" fill="#E3342F"/>
<path d="M19.9582 38.7473C19.2665 38.7473 18.7056 39.3079 18.7056 39.9999V42.6721C18.7056 43.364 19.2664 43.9248 19.9582 43.9248C20.6501 43.9248 21.2109 43.3641 21.2109 42.6721V39.9999C21.2109 39.3081 20.6501 38.7473 19.9582 38.7473Z" fill="#E3342F"/>
<path d="M15.95 38.7473C15.2583 38.7473 14.6973 39.3079 14.6973 39.9999V42.6721C14.6973 43.364 15.2581 43.9248 15.95 43.9248C16.6418 43.9248 17.2026 43.3641 17.2026 42.6721V39.9999C17.2026 39.3081 16.6417 38.7473 15.95 38.7473Z" fill="#E3342F"/>
<path d="M64.05 4.00827C58.2022 4.00827 53.4446 8.76576 53.4446 14.6137C53.4446 15.3056 54.0052 15.8664 54.6972 15.8664H73.4028C74.0947 15.8664 74.6555 15.3058 74.6555 14.6137C74.6555 8.76592 69.8978 4.00827 64.05 4.00827ZM66.3907 13.3611L67.7647 11.3001C68.1485 10.7247 67.9928 9.94686 67.4174 9.56311C66.8421 9.17936 66.0639 9.33483 65.6805 9.91045L63.3799 13.3609H56.0468C56.6505 9.48701 60.0097 6.51327 64.0502 6.51327C68.0906 6.51327 71.4499 9.48701 72.0536 13.3609L66.3907 13.3611Z" fill="#E3342F"/>
<path d="M64.5408 18.8061C64.5535 18.8112 64.5588 18.8131 64.5294 18.8006C64.4969 18.7876 64.5069 18.792 64.5222 18.7984C64.0053 18.5957 63.4049 18.7486 63.0618 19.1895C62.7594 19.5779 62.7152 20.1209 62.9488 20.5537C63.2071 21.032 63.7622 21.2923 64.2955 21.1857C64.8006 21.0848 65.1992 20.6721 65.2852 20.1646C65.3811 19.5987 65.0631 19.0339 64.5408 18.8061Z" fill="#E3342F"/>
<path d="M70.4385 19.2662C70.4489 19.2817 70.4577 19.2945 70.4368 19.2634C70.4138 19.2298 70.4243 19.2453 70.4355 19.2618C70.1327 18.8201 69.5799 18.609 69.0603 18.7518C68.5686 18.8872 68.2025 19.3223 68.1489 19.8287C68.0985 20.3061 68.3386 20.7865 68.7508 21.0329C69.2305 21.3195 69.8596 21.2471 70.2619 20.8604C70.6911 20.4481 70.771 19.7631 70.4385 19.2662Z" fill="#E3342F"/>
<path d="M59.1963 18.8061C59.2089 18.8112 59.2144 18.8132 59.185 18.8007C59.1529 18.7879 59.1622 18.792 59.1772 18.7982C58.7058 18.6136 58.1569 18.7243 57.8033 19.0906C57.429 19.4782 57.3485 20.0807 57.6044 20.5542C57.8513 21.0106 58.3755 21.2756 58.8896 21.1967C59.4127 21.1165 59.8368 20.71 59.9358 20.19C60.045 19.6167 59.7275 19.0378 59.1963 18.8061Z" fill="#E3342F"/>
<path d="M76.0752 68.1419H67.975V28.6915C74.133 26.9726 78.6639 21.3126 78.6639 14.6137C78.6639 12.9681 78.3922 11.3525 77.8561 9.81108C77.6288 9.15764 76.9147 8.8128 76.2614 9.03951C75.608 9.26686 75.2627 9.98076 75.4899 10.6342C75.9336 11.9103 76.1588 13.2492 76.1588 14.6139C76.1588 21.2906 70.7269 26.7225 64.0502 26.7225C57.3735 26.7225 51.9416 21.2906 51.9416 14.6139C51.9416 7.93717 57.3735 2.50531 64.0502 2.50531C67.546 2.50531 70.8711 4.01655 73.1728 6.65155C73.6281 7.17249 74.4194 7.22577 74.9403 6.77077C75.4613 6.31546 75.5145 5.52436 75.0595 5.00327C72.2817 1.82359 68.2691 0 64.05 0C55.9919 0 49.4363 6.55561 49.4363 14.6137C49.4363 21.3126 53.9672 26.9725 60.1252 28.6915V68.1417H53.2776V34.6554C53.2776 33.9635 52.7169 33.4027 52.0249 33.4027H21.2945C20.6028 33.4027 20.0418 33.9634 20.0418 34.6554C20.0418 35.3474 20.6026 35.9081 21.2945 35.9081H25.3864V45.3443C25.3864 46.3246 26.5162 46.9316 27.3337 46.3865L30.6473 44.1774L33.9609 46.3865C34.7793 46.9323 35.9082 46.3235 35.9082 45.3443V35.9081H50.7726V68.1417H10.522V35.9081H15.95C16.6417 35.9081 17.2026 35.3474 17.2026 34.6554C17.2026 33.9634 16.6418 33.4027 15.95 33.4027H9.26936C8.57764 33.4027 8.0167 33.9634 8.0167 34.6554V68.1417H1.25265C0.560936 68.1417 0 68.7024 0 69.3944V74.7389C0 75.4308 0.56078 75.9916 1.25265 75.9916H5.34452V78.7474C5.34452 79.4392 5.9053 80 6.59718 80C7.28889 80 7.84983 79.4394 7.84983 78.7474V75.9916H69.4781V78.7474C69.4781 79.4392 70.0388 80 70.7308 80C71.4227 80 71.9835 79.4394 71.9835 78.7474V75.9916H76.0753C76.7672 75.9916 77.328 75.4309 77.328 74.7389V69.3944C77.3277 68.7025 76.767 68.1419 76.0752 68.1419ZM33.4029 43.0038L31.342 41.6298C31.1315 41.4895 30.8893 41.4193 30.6471 41.4193C30.4049 41.4193 30.1628 41.4895 29.9523 41.6298L27.8914 43.0038V35.9081H33.4027L33.4029 43.0038ZM62.6305 29.1584C63.0978 29.2037 63.5711 29.2276 64.0502 29.2276C64.5292 29.2276 65.0025 29.2037 65.4699 29.1584V68.1419H62.6307L62.6305 29.1584ZM74.8225 73.4863H2.50531V70.647H74.8225V73.4863Z" fill="#E3342F"/>
</svg>
