<svg width="33" height="32" viewBox="0 0 33 32" fill="none" xmlns="http://www.w3.org/2000/svg">
<g clip-path="url(#clip0)">
<path d="M7.7262 11.3547C9.15148 11.3547 10.3069 10.1993 10.3069 8.77405C10.3069 7.34878 9.15148 6.19336 7.7262 6.19336C6.30092 6.19336 5.14551 7.34878 5.14551 8.77405C5.14551 10.1993 6.30092 11.3547 7.7262 11.3547Z" fill="url(#paint0_linear)"/>
<path d="M10.1217 7.62187L9.45992 6.8291L6.72607 9.10777L6.02667 8.40892L5.29688 9.13882L6.66209 10.5045L10.1217 7.62187Z" fill="white"/>
<path d="M19.5973 7.22559H11.8555V8.25784H19.5973V7.22559Z" fill="white"/>
<path d="M20.6296 9.29004H11.8555V10.3223H20.6296V9.29004Z" fill="white"/>
<path d="M10.1217 12.783L9.45992 11.9902L6.72607 14.2689L6.02667 13.5701L5.29688 14.3L6.66209 15.6656L10.1217 12.783Z" fill="white"/>
<path d="M22.6941 12.3867H11.8555V13.419H22.6941V12.3867Z" fill="white"/>
<path d="M13.92 14.4512H11.8555V15.4834H13.92V14.4512Z" fill="white"/>
<path d="M22.694 14.4512H14.9521V15.4834H22.694V14.4512Z" fill="white"/>
<path d="M10.1217 17.9441L9.45992 17.1514L6.72607 19.43L6.02667 18.7312L5.29688 19.4611L6.66209 20.8267L10.1217 17.9441Z" fill="white"/>
<path d="M22.6941 17.5479H11.8555V18.5801H22.6941V17.5479Z" fill="white"/>
<path d="M19.5973 19.6133H11.8555V20.6455H19.5973V19.6133Z" fill="white"/>
<path d="M22.6934 19.6133H20.6289V20.6455H22.6934V19.6133Z" fill="white"/>
<path d="M22.6934 7.22559H20.6289V8.25784H22.6934V7.22559Z" fill="white"/>
<path d="M30.9524 23.7419H29.9202H28.8879H27.8557H26.8234V2.58069C26.8234 1.15767 25.6657 0 24.2428 0H3.08167C1.65864 0 0.500977 1.15767 0.500977 2.58069C0.500977 4.00372 1.65864 5.16138 3.08156 5.16138V32H24.7589V28.9031H26.8234V26.8386H27.8557H28.8879H29.9202H30.9524C31.8061 26.8386 32.5008 26.144 32.5008 25.2902C32.5008 24.4364 31.8061 23.7419 30.9524 23.7419ZM25.7912 2.58069V23.742H24.7589V4.12902H24.2427C23.3891 4.12902 22.6944 3.43435 22.6944 2.58058C22.6944 1.72681 23.3891 1.03214 24.2427 1.03214C25.0964 1.03214 25.7912 1.72692 25.7912 2.58069ZM1.53323 2.58069C1.53323 1.72703 2.2279 1.03225 3.08156 1.03225H22.1916C21.8639 1.46476 21.6621 1.99745 21.6621 2.58069C21.6621 3.16393 21.864 3.69652 22.1916 4.12913H3.08167C2.22801 4.12902 1.53323 3.43435 1.53323 2.58069ZM4.11392 30.9676V5.16127H23.7268V23.7419H9.19151L4.54642 25.2903L9.19151 26.8387H23.7266V30.9677H4.11392V30.9676ZM7.81044 25.2903L8.75901 24.9738V25.6061L7.81044 25.2903ZM25.7912 27.8709H24.7589V26.8386H25.7912V27.8709ZM26.8234 25.8064H9.79127V24.7741H26.8234V25.8064ZM28.8879 25.8064H27.8557V24.7741H28.8879V25.8064ZM30.9524 25.8064H29.9202V24.7741H30.9524C31.2373 24.7741 31.4685 25.0059 31.4685 25.2903C31.4685 25.5747 31.2374 25.8064 30.9524 25.8064Z" fill="white"/>
</g>
<defs>
<linearGradient id="paint0_linear" x1="10.3069" y1="11.3547" x2="4.07822" y2="8.88465" gradientUnits="userSpaceOnUse">
<stop stop-color="#ED1D24"/>
<stop offset="1" stop-color="#8A0021"/>
</linearGradient>
<clipPath id="clip0">
<rect width="32" height="32" fill="white" transform="translate(0.5)"/>
</clipPath>
</defs>
</svg>
