<?xml version="1.0"?>
<svg width="33" height="32" viewBox="0 0 33 32" fill="none" xmlns="http://www.w3.org/2000/svg">
<g clip-path="url(#clip0)">
<path d="M28.8873 26.8384H26.3066C25.453 26.8384 24.7583 26.1438 24.7583 25.29V9.29004H30.4357V25.2901C30.4358 26.1438 29.741 26.8384 28.8873 26.8384Z" fill="url(#paint0_linear)"/>
<path d="M22.1773 26.8384H19.5967C18.743 26.8384 18.0483 26.1438 18.0483 25.29V9.29004H23.7257V25.2901C23.7256 26.1438 23.0309 26.8384 22.1773 26.8384Z" fill="url(#paint1_linear)"/>
<path d="M15.4673 26.8384H12.8867C12.033 26.8384 11.3384 26.1438 11.3384 25.29V9.29004H17.0157V25.2901C17.0157 26.1438 16.3211 26.8384 15.4673 26.8384Z" fill="url(#paint2_linear)"/>
<path d="M0.5 3.09668V28.9031H32.5V3.09668H0.5ZM1.53226 4.12894H9.27414V27.8709H1.53226V4.12894ZM31.4677 27.8709H10.3064V4.12894H31.4677V27.8709Z" fill="white"/>
<path d="M27.5967 10.8389C26.6006 10.8389 25.7903 11.6491 25.7903 12.6453C25.7903 13.6414 26.6006 14.4517 27.5967 14.4517C28.5928 14.4517 29.4031 13.6414 29.4031 12.6453C29.4031 11.6491 28.5927 10.8389 27.5967 10.8389ZM27.5967 13.4196C27.1698 13.4196 26.8225 13.0722 26.8225 12.6454C26.8225 12.2185 27.1699 11.8712 27.5967 11.8712C28.0235 11.8712 28.3709 12.2186 28.3709 12.6454C28.3709 13.0722 28.0235 13.4196 27.5967 13.4196Z" fill="white"/>
<path d="M30.4357 21.1616H24.7583V22.1939H30.4357V21.1616Z" fill="white"/>
<path d="M28.8872 14.9678H27.855V20.1291H28.8872V14.9678Z" fill="white"/>
<path d="M27.3389 14.9678H26.3066V20.1291H27.3389V14.9678Z" fill="white"/>
<path d="M20.8872 10.8389C19.8911 10.8389 19.0808 11.6491 19.0808 12.6453C19.0808 13.6414 19.8911 14.4517 20.8872 14.4517C21.8834 14.4517 22.6937 13.6414 22.6937 12.6453C22.6937 11.6491 21.8834 10.8389 20.8872 10.8389ZM20.8872 13.4196C20.4603 13.4196 20.1131 13.0722 20.1131 12.6454C20.1131 12.2185 20.4605 11.8712 20.8872 11.8712C21.3141 11.8712 21.6614 12.2186 21.6614 12.6454C21.6614 13.0722 21.3141 13.4196 20.8872 13.4196Z" fill="white"/>
<path d="M23.7259 21.1616H18.0486V22.1939H23.7259V21.1616Z" fill="white"/>
<path d="M22.1775 14.9678H21.1453V20.1291H22.1775V14.9678Z" fill="white"/>
<path d="M20.6292 14.9678H19.5969V20.1291H20.6292V14.9678Z" fill="white"/>
<path d="M14.1775 10.8389C13.1814 10.8389 12.3711 11.6491 12.3711 12.6453C12.3711 13.6414 13.1814 14.4517 14.1775 14.4517C15.1737 14.4517 15.9839 13.6414 15.9839 12.6453C15.9839 11.6491 15.1737 10.8389 14.1775 10.8389ZM14.1775 13.4196C13.7506 13.4196 13.4034 13.0722 13.4034 12.6454C13.4034 12.2185 13.7507 11.8712 14.1775 11.8712C14.6043 11.8712 14.9517 12.2186 14.9517 12.6454C14.9517 13.0722 14.6043 13.4196 14.1775 13.4196Z" fill="white"/>
<path d="M17.0162 21.1616H11.3389V22.1939H17.0162V21.1616Z" fill="white"/>
<path d="M15.4678 14.9678H14.4355V20.1291H15.4678V14.9678Z" fill="white"/>
<path d="M13.9195 14.9678H12.8872V20.1291H13.9195V14.9678Z" fill="white"/>
<path d="M2.5647 5.16162V9.29065H8.24206V5.16162H2.5647ZM7.2098 8.2584H3.59696V6.19388H7.2098V8.2584Z" fill="white"/>
<path d="M2.5647 14.4513H8.24206V10.3223H2.5647V14.4513ZM3.59696 11.3545H7.2098V13.419H3.59696V11.3545Z" fill="white"/>
<path d="M2.5647 19.6129H8.24206V15.4839H2.5647V19.6129ZM3.59696 16.5161H7.2098V18.5807H3.59696V16.5161Z" fill="white"/>
<path d="M5.40338 20.645C3.83798 20.645 2.5647 21.9189 2.5647 23.4837C2.5647 25.0486 3.83798 26.3224 5.40338 26.3224C6.96878 26.3224 8.24206 25.0486 8.24206 23.4837C8.24206 21.9189 6.96878 20.645 5.40338 20.645ZM5.40338 25.2901C4.40724 25.2901 3.59696 24.4798 3.59696 23.4837C3.59696 22.4876 4.40724 21.6773 5.40338 21.6773C6.39952 21.6773 7.2098 22.4876 7.2098 23.4837C7.2098 24.4798 6.39952 25.2901 5.40338 25.2901Z" fill="white"/>
<path d="M30.4357 5.16162H11.3389V8.2584H30.4356V5.16162H30.4357ZM29.4034 7.22614H12.3711V6.19388H29.4034V7.22614Z" fill="white"/>
</g>
<defs>
<linearGradient id="paint0_linear" x1="30.4357" y1="26.8384" x2="22.6352" y2="25.8376" gradientUnits="userSpaceOnUse">
<stop stop-color="#ED1D24"/>
<stop offset="1" stop-color="#8A0021"/>
</linearGradient>
<linearGradient id="paint1_linear" x1="23.7257" y1="26.8384" x2="15.9253" y2="25.8376" gradientUnits="userSpaceOnUse">
<stop stop-color="#ED1D24"/>
<stop offset="1" stop-color="#8A0021"/>
</linearGradient>
<linearGradient id="paint2_linear" x1="17.0157" y1="26.8384" x2="9.21531" y2="25.8376" gradientUnits="userSpaceOnUse">
<stop stop-color="#ED1D24"/>
<stop offset="1" stop-color="#8A0021"/>
</linearGradient>
<clipPath id="clip0">
<rect width="32" height="32" fill="white" transform="translate(0.5)"/>
</clipPath>
</defs>
</svg>

