<svg width="33" height="32" viewBox="0 0 33 32" fill="none" xmlns="http://www.w3.org/2000/svg">
<g clip-path="url(#clip0)">
<path d="M17.3365 14.025C17.2059 13.5336 17.0129 13.0686 16.7631 12.6387L17.3298 11.4691L15.8702 10.0095L14.7006 10.5762C14.2712 10.3264 13.8062 10.1334 13.3143 10.0028L12.8874 8.77441H10.8229L10.3961 10.0028C9.90473 10.1334 9.4397 10.3264 9.00977 10.5762L7.84022 10.0095L6.3806 11.4691L6.94731 12.6387C6.69751 13.0681 6.50448 13.5331 6.3739 14.025L5.14551 14.4518V16.5164L6.3739 16.9432C6.50448 17.4345 6.69751 17.8996 6.94731 18.3295L6.3806 19.4991L7.84022 20.9587L9.00977 20.392C9.43919 20.6418 9.90422 20.8348 10.3961 20.9654L10.8229 22.1938H12.8874L13.3143 20.9654C13.8056 20.8348 14.2707 20.6418 14.7006 20.392L15.8702 20.9587L17.3298 19.4991L16.7631 18.3295C17.0129 17.8996 17.2059 17.4351 17.3365 16.9432L18.5649 16.5164V14.4518L17.3365 14.025ZM11.8552 19.097C9.85983 19.097 8.24228 17.4794 8.24228 15.4841C8.24228 13.4887 9.85983 11.8712 11.8552 11.8712C13.8505 11.8712 15.4681 13.4887 15.4681 15.4841C15.4681 17.4794 13.8505 19.097 11.8552 19.097Z" fill="url(#paint0_linear)"/>
<path d="M20.629 3.09677H18.0484V2.06452H14.7751C14.3436 0.846452 13.1766 0 11.8548 0C10.533 0 9.36606 0.846452 8.93458 2.06452H5.66129V3.09677H3.08065C1.65768 3.09677 0.5 4.25445 0.5 5.67742V29.4194C0.5 30.8423 1.65768 32 3.08065 32H20.629C22.052 32 23.2097 30.8423 23.2097 29.4194V5.67742C23.2097 4.25445 22.052 3.09677 20.629 3.09677ZM18.0484 7.22581V6.19355H20.1129V28.9032H3.59677V6.19355H5.66129V7.22581H18.0484ZM6.69355 3.09677H9.748L9.83213 2.68335C10.0262 1.72697 10.8768 1.03226 11.8548 1.03226C12.8329 1.03226 13.6835 1.72697 13.8775 2.68335L13.9617 3.09677H17.0161V6.19355H6.69355V3.09677ZM22.1774 29.4194C22.1774 30.273 21.4827 30.9677 20.629 30.9677H3.08065C2.22697 30.9677 1.53226 30.273 1.53226 29.4194V5.67742C1.53226 4.82374 2.22697 4.12903 3.08065 4.12903H5.66129V5.16129H2.56452V29.9355H21.1452V5.16129H18.0484V4.12903H20.629C21.4827 4.12903 22.1774 4.82374 22.1774 5.67742V29.4194Z" fill="white"/>
<path d="M11.8546 19.6126C12.8626 19.6126 13.8329 19.2456 14.587 18.5788L13.9036 17.8056C13.3385 18.3052 12.6107 18.5803 11.8546 18.5803C10.1467 18.5803 8.75784 17.1914 8.75784 15.4835C8.75784 13.7757 10.1467 12.3868 11.8546 12.3868C13.5625 12.3868 14.9514 13.7757 14.9514 15.4835C14.9514 16.1566 14.7398 16.7955 14.3387 17.3328L15.1661 17.9496C15.7008 17.2337 15.9837 16.38 15.9837 15.4835C15.9837 13.2069 14.1313 11.3545 11.8546 11.3545C9.57797 11.3545 7.72559 13.2069 7.72559 15.4835C7.72559 17.7602 9.57797 19.6126 11.8546 19.6126Z" fill="white"/>
<path d="M16.5003 26.8389H5.14551V27.8711H16.5003V26.8389Z" fill="white"/>
<path d="M18.5649 24.7744H5.14551V25.8067H18.5649V24.7744Z" fill="white"/>
<path d="M30.9518 8.25791C30.7702 8.25791 30.5978 8.29507 30.4357 8.35287V7.74178C30.4357 6.31881 29.278 5.16113 27.8551 5.16113C26.4321 5.16113 25.2744 6.31881 25.2744 7.74178V27.4486L26.6742 31.1813C26.8574 31.6705 27.3322 31.9998 27.8551 31.9998C28.3779 31.9998 28.8527 31.6705 29.036 31.1818L30.4357 27.4486V18.4855C30.5978 18.5433 30.7702 18.5805 30.9518 18.5805C31.8055 18.5805 32.5002 17.8858 32.5002 17.0321V9.80629C32.5002 8.95262 31.8055 8.25791 30.9518 8.25791ZM30.9518 9.29016C31.2362 9.29016 31.468 9.52139 31.468 9.80629V10.3224H30.4357V9.80629C30.4357 9.52139 30.6674 9.29016 30.9518 9.29016ZM29.4034 26.8385H28.3712V14.4515H27.3389V26.8385H26.3067V12.3869H27.3389V13.4192H28.3712V12.3869H29.4034V17.0321V26.8385ZM26.3067 11.3547V10.3224H29.4034V11.3547H26.3067ZM27.8551 6.19339C28.7087 6.19339 29.4034 6.8881 29.4034 7.74178V9.29016H26.3067V7.74178C26.3067 6.8881 27.0014 6.19339 27.8551 6.19339ZM28.0693 30.8195C28.0027 30.997 27.708 30.9975 27.6414 30.8189L26.5353 27.8708H29.1748L28.0693 30.8195ZM30.9518 17.5482C30.6674 17.5482 30.4357 17.317 30.4357 17.0321V11.3547H31.468V17.0321C31.468 17.317 31.2362 17.5482 30.9518 17.5482Z" fill="white"/>
<path d="M18.5645 26.8389H17.5322V27.8711H18.5645V26.8389Z" fill="white"/>
</g>
<defs>
<linearGradient id="paint0_linear" x1="18.5649" y1="22.1938" x2="2.37063" y2="15.7716" gradientUnits="userSpaceOnUse">
<stop stop-color="#ED1D24"/>
<stop offset="1" stop-color="#8A0021"/>
</linearGradient>
<clipPath id="clip0">
<rect width="32" height="32" fill="white" transform="translate(0.5)"/>
</clipPath>
</defs>
</svg>
