<svg width="33" height="32" viewBox="0 0 33 32" fill="none" xmlns="http://www.w3.org/2000/svg">
<path d="M23 27.5H20V25H23V27.5Z" fill="url(#paint0_linear)"/>
<path d="M18 21.5H15V19H18V21.5Z" fill="url(#paint1_linear)"/>
<path d="M10 25.5H6V22H10V25.5Z" fill="url(#paint2_linear)"/>
<path d="M29 30.5V10H28V30.5H26V30V26V13.5H7V21.5H5V10H4V21.5H3.5C2.673 21.5 2 22.173 2 23V30C2 30.176 2.036 30.343 2.092 30.5H1V31.5H3.5H12.5H13.5H16.5H18.5H24.5H32V30.5H29ZM25 14.5V16.5H8V14.5H25ZM8 17.5H25V24.592C24.843 24.536 24.676 24.5 24.5 24.5H20.908C20.964 24.343 21 24.176 21 24V20C21 19.173 20.327 18.5 19.5 18.5H13.5C12.673 18.5 12 19.173 12 20V21.5H8V17.5ZM16.5 24.5H14V23C14 22.349 13.5805 21.799 13 21.592V20C13 19.724 13.224 19.5 13.5 19.5H19.5C19.776 19.5 20 19.724 20 20V24C20 24.276 19.776 24.5 19.5 24.5H18.5H16.5ZM3.5 30.5C3.224 30.5 3 30.276 3 30V23C3 22.724 3.224 22.5 3.5 22.5H12.5C12.776 22.5 13 22.724 13 23V30C13 30.276 12.776 30.5 12.5 30.5H3.5ZM13.908 30.5C13.964 30.343 14 30.176 14 30V25.5H16.5C16.776 25.5 17 25.724 17 26V30C17 30.276 16.776 30.5 16.5 30.5H13.908ZM18.5 30.5C18.224 30.5 18 30.276 18 30V26C18 25.724 18.224 25.5 18.5 25.5H19.5H24.5C24.776 25.5 25 25.724 25 26V30C25 30.276 24.776 30.5 24.5 30.5H18.5Z" fill="white"/>
<path d="M20 7.5H13V12.5H20V7.5ZM19 9.5H17V8.5H19V9.5ZM16 8.5V9.5H14V8.5H16ZM14 10.5H16V11.5H14V10.5ZM17 11.5V10.5H19V11.5H17Z" fill="white"/>
<path d="M7 28.5H8V29.5H7V28.5Z" fill="white"/>
<path d="M11 28.5H12V29.5H11V28.5Z" fill="white"/>
<path d="M9 28.5H10V29.5H9V28.5Z" fill="white"/>
<path d="M10.5 12.5C11.327 12.5 12 11.827 12 11C12 10.173 11.327 9.5 10.5 9.5C9.673 9.5 9 10.173 9 11C9 11.827 9.673 12.5 10.5 12.5ZM10.5 10.5C10.776 10.5 11 10.724 11 11C11 11.276 10.776 11.5 10.5 11.5C10.224 11.5 10 11.276 10 11C10 10.724 10.224 10.5 10.5 10.5Z" fill="white"/>
<path d="M22.5 12.5C23.327 12.5 24 11.827 24 11C24 10.173 23.327 9.5 22.5 9.5C21.673 9.5 21 10.173 21 11C21 11.827 21.673 12.5 22.5 12.5ZM22.5 10.5C22.776 10.5 23 10.724 23 11C23 11.276 22.776 11.5 22.5 11.5C22.224 11.5 22 11.276 22 11C22 10.724 22.224 10.5 22.5 10.5Z" fill="white"/>
<path d="M16.5006 4.5C16.1736 4.5 15.8521 4.5885 15.5711 4.756L3.76506 11.7905C3.53356 11.9275 3.26955 12 3.00055 12C2.47305 12 1.97855 11.7185 1.70955 11.265C1.28755 10.554 1.52306 9.6315 2.23506 9.2095L15.5711 1.256C15.8521 1.0885 16.1731 1 16.5006 1C16.8276 1 17.1491 1.0885 17.4301 1.256L30.7651 9.2095C31.4771 9.6315 31.7126 10.5535 31.2906 11.265C31.0221 11.7185 30.5271 12 30.0001 12C29.7311 12 29.4671 11.9275 29.2356 11.7905L17.4301 4.756C17.1486 4.5885 16.8276 4.5 16.5006 4.5Z" fill="url(#paint3_linear)"/>
<defs>
<linearGradient id="paint0_linear" x1="23" y1="27.5" x2="19.5839" y2="25.8743" gradientUnits="userSpaceOnUse">
<stop stop-color="#ED1D24"/>
<stop offset="1" stop-color="#8A0021"/>
</linearGradient>
<linearGradient id="paint1_linear" x1="18" y1="21.5" x2="14.5839" y2="19.8743" gradientUnits="userSpaceOnUse">
<stop stop-color="#ED1D24"/>
<stop offset="1" stop-color="#8A0021"/>
</linearGradient>
<linearGradient id="paint2_linear" x1="10" y1="25.5" x2="5.36566" y2="23.3996" gradientUnits="userSpaceOnUse">
<stop stop-color="#ED1D24"/>
<stop offset="1" stop-color="#8A0021"/>
</linearGradient>
<linearGradient id="paint3_linear" x1="31.5001" y1="12" x2="12.1905" y2="-8.8844" gradientUnits="userSpaceOnUse">
<stop stop-color="#ED1D24"/>
<stop offset="1" stop-color="#8A0021"/>
</linearGradient>
</defs>
</svg>
