<svg width="33" height="32" viewBox="0 0 33 32" fill="none" xmlns="http://www.w3.org/2000/svg">
<g clip-path="url(#clip0)">
<path d="M16.5 27.3448C10.2444 27.3448 5.15527 22.2556 5.15527 16C5.15527 9.74444 10.2444 4.65527 16.5 4.65527C22.7556 4.65527 27.8448 9.74444 27.8448 16C27.8448 22.2556 22.7556 27.3448 16.5 27.3448ZM16.5 6.71796C11.3821 6.71796 7.21796 10.8821 7.21796 16C7.21796 21.118 11.3821 25.2821 16.5 25.2821C21.618 25.2821 25.7821 21.118 25.7821 16C25.7821 10.8821 21.618 6.71796 16.5 6.71796Z" fill="url(#paint0_linear)"/>
<path d="M29.9077 15.9994C29.9077 15.4606 29.8753 14.9196 29.8112 14.3854L32.5 13.5118L30.9071 8.6072L28.2152 9.48123C27.6887 8.53548 27.0529 7.6609 26.3191 6.87092L27.9827 4.58249L23.8109 1.55084L22.1473 3.83992C21.167 3.3836 20.1383 3.04884 19.0786 2.84159V0.0136719H13.9219V2.84159C12.8621 3.0484 11.8334 3.3836 10.8531 3.83992L9.19012 1.55139L5.01778 4.58249L6.68134 6.87103C5.94758 7.66057 5.31172 8.53559 4.78521 9.48134L2.09393 8.60731L0.50055 13.5119L3.18974 14.3855C3.12528 14.9197 3.09282 15.4606 3.09282 15.9995C3.09282 16.5385 3.12528 17.0794 3.1893 17.6136L0.5 18.4871L2.09338 23.3916L4.78466 22.5176C5.31117 23.4634 5.94703 24.338 6.68079 25.1279L5.01778 27.4165L9.18957 30.4481L10.8526 28.1596C11.8329 28.6159 12.8616 28.9507 13.9213 29.1579V31.9854H19.078V29.1575C20.1378 28.9507 21.1665 28.6155 22.1468 28.1591L23.8098 30.4477L27.9816 27.416L26.318 25.1275C27.0518 24.338 27.6876 23.4629 28.2141 22.5172L30.906 23.3912L32.4989 18.4866L29.8102 17.613C29.8752 17.0793 29.9077 16.5384 29.9077 15.9994ZM31.201 19.1487L30.2449 22.0921L27.7073 21.267L27.5062 21.6569C26.9229 22.7893 26.1748 23.8191 25.2827 24.7185L24.9733 25.0299L26.542 27.1891L24.0389 29.0079L22.4703 26.8483L22.0784 27.0468C20.9439 27.6213 19.7337 28.0147 18.4811 28.2169L18.0475 28.286V30.9541H14.9534V28.286L14.5198 28.2158C13.2672 28.0137 12.057 27.6208 10.9224 27.0457L10.5305 26.8472L8.96185 29.0068L6.45879 27.188L8.02743 25.0288L7.71797 24.7174C6.8259 23.8186 6.07761 22.7888 5.49445 21.6558L5.29335 21.2659L2.75575 22.091L1.79966 19.1476L4.33472 18.324L4.26817 17.8908C4.17279 17.2695 4.12428 16.6331 4.12428 15.9993C4.12428 15.3655 4.17279 14.7293 4.26817 14.1063L4.33472 13.673L1.79966 12.8495L2.75575 9.90609L5.29335 10.7312L5.49445 10.3413C6.0775 9.20907 6.82579 8.17926 7.71786 7.27993L8.02732 6.9685L6.45857 4.80944L8.96163 2.99065L10.5303 5.15025L10.9222 4.95168C12.0568 4.37721 13.267 3.98382 14.5195 3.78162L14.9532 3.71308V1.04501H18.0472V3.71308L18.4809 3.78316C19.7335 3.98536 20.9437 4.3782 22.0782 4.95322L22.4701 5.15179L24.0387 2.99219L26.5418 4.81098L24.9731 6.97015L25.2825 7.28158C26.1745 8.18036 26.9228 9.21017 27.506 10.3432L27.7071 10.733L30.2447 9.90796L31.2008 12.8514L28.6653 13.6749L28.7318 14.1081C28.8278 14.7295 28.8763 15.3659 28.8763 15.9996C28.8763 16.6334 28.8278 17.2697 28.7324 17.8927L28.6658 18.3259L31.201 19.1487Z" fill="white"/>
<path d="M20.2593 9.84787L18.769 10.8287L19.3363 11.6899L21.7362 10.1104L21.3882 7.1875L20.3641 7.30917L20.5446 8.82522C17.3722 7.03734 13.3025 7.5293 10.6664 10.1655C7.75805 13.0739 7.44859 17.7308 9.94647 20.9987L10.7658 20.3722C8.58037 17.5134 8.85165 13.439 11.396 10.8946C13.7628 8.52775 17.4545 8.13127 20.2593 9.84787Z" fill="white"/>
<path d="M22.2345 11.6274C24.42 14.4862 24.1487 18.5605 21.6044 21.1049C19.2364 23.4724 15.5447 23.8689 12.74 22.1522L14.2309 21.1709L13.6636 20.3098L11.2637 21.8893L11.6117 24.8122L12.6358 24.6905L12.4553 23.177C13.711 23.8844 15.1053 24.2398 16.4982 24.2398C18.6243 24.2398 20.7411 23.4266 22.333 21.8342C25.2413 18.9258 25.5508 14.2688 23.0529 11.001L22.2345 11.6274Z" fill="white"/>
</g>
<defs>
<linearGradient id="paint0_linear" x1="27.8448" y1="27.3448" x2="0.463484" y2="16.4862" gradientUnits="userSpaceOnUse">
<stop stop-color="#ED1D24"/>
<stop offset="1" stop-color="#8A0021"/>
</linearGradient>
<clipPath id="clip0">
<rect width="32" height="32" fill="white" transform="translate(0.5)"/>
</clipPath>
</defs>
</svg>
