<svg width="29" height="32" viewBox="0 0 29 32" fill="none" xmlns="http://www.w3.org/2000/svg">
<path d="M27.3909 25.1736C27.0446 23.0941 25.5865 21.3878 23.586 20.721L19.1453 19.2407V18.5806H18.113V19.5488L17.3424 22.6306L15.2578 20.129H13.7419L11.6573 22.6306L10.8872 19.5488V18.5806H9.85493V19.2407L5.41416 20.721C3.41416 21.3878 1.95609 23.0941 1.60926 25.1736L0.471191 31.9999H28.5285L27.3909 25.1736ZM23.7414 30.9677L23.2717 26.2709L22.2446 26.3736L22.704 30.9671H6.29622L6.75558 26.3736L5.72848 26.2709L5.2588 30.9677H1.69029L2.62758 25.3439C2.91093 23.6422 4.10422 22.2466 5.74087 21.7006L10.0056 20.2786L11.1494 24.8531L14.2255 21.1612H14.7742L17.8508 24.8531L18.9945 20.2786L23.2593 21.7006C24.896 22.2461 26.0887 23.6422 26.3726 25.3439L27.3099 30.9677H23.7414Z" fill="white"/>
<path d="M8.01872 13.9066C8.28194 14.8124 8.76814 15.6428 9.45356 16.3283L11.4665 18.3412C11.9537 18.8284 12.6014 19.0968 13.291 19.0968H15.7101C16.3991 19.0968 17.0474 18.8284 17.5346 18.3412L19.5475 16.3283C20.2329 15.6428 20.7191 14.8119 20.9823 13.9066C22.268 13.761 23.2745 12.6792 23.2745 11.3548C23.2745 10.5079 22.8585 9.76103 22.2262 9.29032H22.2422V6.19355C22.2422 4.90168 21.2874 3.82813 20.0466 3.64181C19.2698 1.48026 17.1914 0 14.8719 0H14.5003C10.2314 0 6.75833 3.47303 6.75833 7.74194V9.29032H6.77433C6.14207 9.76103 5.72607 10.5079 5.72607 11.3548C5.72607 12.6792 6.73253 13.761 8.01872 13.9066ZM18.8172 15.5985L16.8043 17.6114C16.5163 17.8994 16.1173 18.0645 15.7096 18.0645H13.2905C12.8827 18.0645 12.4843 17.8994 12.1958 17.6114L10.1828 15.5985C9.30543 14.721 8.82233 13.5546 8.82233 12.3138V9.80645H10.8502C13.1217 9.80645 15.2693 8.99974 16.9663 7.52207L17.1243 7.78529C17.7828 8.8831 18.9225 9.6129 20.1777 9.77187V12.3133C20.1777 13.5546 19.6946 14.721 18.8172 15.5985ZM21.1857 12.8155C21.2001 12.6498 21.2099 12.4826 21.2099 12.3138V9.90142C21.8092 10.1151 22.2422 10.6828 22.2422 11.3548C22.2422 12.0356 21.7973 12.609 21.1857 12.8155ZM7.79059 7.74194C7.79059 4.04232 10.8007 1.03226 14.5003 1.03226H14.8719C16.8548 1.03226 18.6205 2.36387 19.1656 4.27097L19.2724 4.64516H19.6616C20.5152 4.64516 21.2099 5.33987 21.2099 6.19355V8.82632C21.0432 8.79226 20.8703 8.77419 20.6938 8.77419C19.6007 8.77419 18.572 8.192 18.0094 7.25419L17.1831 5.87716L16.7155 6.34477C15.149 7.91123 13.0665 8.77419 10.8507 8.77419H8.30672C8.1302 8.77419 7.9573 8.79226 7.79059 8.82632V7.74194ZM7.79059 9.90142V12.3138C7.79059 12.4826 7.8004 12.6498 7.81485 12.816C7.20324 12.609 6.75833 12.0356 6.75833 11.3548C6.75833 10.6828 7.19136 10.1151 7.79059 9.90142Z" fill="white"/>
</svg>
