<svg width="33" height="32" viewBox="0 0 33 32" fill="none" xmlns="http://www.w3.org/2000/svg">
<path d="M27.3387 4.88583V0.240723H0.5V23.9827C0.5 25.6905 1.8889 27.0794 3.59677 27.0794H14.7436L14.436 31.6905L15.4661 31.7591L16.5355 15.7245H14.0085L19.0805 9.80808L24.152 15.7245H21.625L22.6939 31.7586L23.7241 31.69L23.4176 27.0794H29.4032C31.1111 27.0794 32.5 25.6905 32.5 23.9827V4.88583H27.3387ZM1.53226 23.9827V1.27298H26.3065V4.88594H14.7544L13.7222 2.82142H5.66129V23.9828C5.66129 25.1214 4.7354 26.0473 3.59677 26.0473C2.45815 26.0473 1.53226 25.1212 1.53226 23.9827ZM31.4677 23.9827C31.4677 25.1213 30.5418 26.0472 29.4032 26.0472H23.3485L22.7292 16.7569H26.3958L19.0806 8.22154L11.765 16.7567H15.4316L14.8122 26.0471H5.89868C6.39108 25.4984 6.69355 24.7763 6.69355 23.9825V3.85357H13.0843L14.1166 5.91809H31.4677V23.9827Z" fill="white"/>
</svg>
